<svg width="80" height="32" viewBox="0 0 80 32" fill="none" xmlns="http://www.w3.org/2000/svg">
<path d="M56.7074 8.60271C58.9066 8.60271 60.6061 9.20256 61.9058 10.4022C63.2053 11.6018 63.805 13.2013 63.805 15.2007V24.7976H61.006V22.5985H60.906C59.7064 24.398 58.0069 25.2977 56.0075 25.2977C54.308 25.2977 52.8085 24.7977 51.6089 23.7982C50.5093 22.7985 49.8094 21.399 49.8094 19.8994C49.8094 18.2999 50.4094 17.0002 51.6089 16.0005C52.8085 15.0008 54.508 14.601 56.5074 14.601C58.3068 14.601 59.7064 14.901 60.806 15.6007V14.901C60.806 13.9679 60.4577 13.0349 59.761 12.4269L59.6063 12.3018C58.8066 11.6019 57.8069 11.2021 56.7074 11.2021C55.0078 11.2021 53.7083 11.9019 52.8085 13.3015L50.2094 11.7016C51.8088 9.60224 53.9082 8.60271 56.7074 8.60271ZM42.6117 1.8049C44.4055 1.8049 46.1102 2.42912 47.4732 3.59318L47.7102 3.80412C49.1097 5.00381 49.8094 6.80334 49.8094 8.70271C49.8094 10.6021 49.1097 12.3016 47.7102 13.6012C46.3105 14.9008 44.6111 15.6005 42.6117 15.6005L37.8133 15.5005V24.7977H34.8141V1.80474L42.6117 1.8049ZM57.1071 17.0002C55.9075 17.0002 54.9078 17.3001 54.1082 17.8999C53.3083 18.3997 52.9085 19.0994 52.9085 19.9991C52.9085 20.799 53.3085 21.4987 53.9082 21.8987C54.608 22.3985 55.4077 22.6983 56.2075 22.6983C57.3271 22.6983 58.4468 22.2629 59.3225 21.4733L59.5064 21.2988C60.5061 20.3991 61.006 19.2994 61.006 18.0997C60.1063 17.4001 58.8066 17.0001 57.1072 17.0001L57.1071 17.0002ZM42.8117 4.60396H37.8133V12.6016H42.8117C43.9113 12.6016 45.011 12.2018 45.7108 11.4021C47.3102 9.90256 47.3102 7.40334 45.8108 5.90365L45.7108 5.80365C44.911 5.00396 43.9113 4.50412 42.8116 4.60412L42.8117 4.60396ZM80 9.10256L70.1032 31.7955H67.1041L70.8029 23.898L64.3049 9.20256H67.5039L72.2024 20.499H72.3024L76.901 9.20256H80V9.10256Z" fill="#5F6368"/>
<path d="M25.9167 13.5012C25.9167 12.6015 25.8167 11.7018 25.7167 10.8021H13.2209V15.9005H20.3186C20.0188 17.4999 19.1191 18.9994 17.7195 19.8993V23.1982H22.0181C24.5174 20.899 25.9169 17.4999 25.9169 13.5013L25.9167 13.5012Z" fill="#4285F4"/>
<path d="M13.2209 26.3972C16.8197 26.3972 19.8188 25.1976 22.0181 23.1982L17.7195 19.8993C16.5198 20.699 15.0203 21.1988 13.2209 21.1988C9.82187 21.1988 6.82281 18.8996 5.82312 15.7005H1.42468V19.0994C3.7239 23.598 8.2225 26.3972 13.2209 26.3972Z" fill="#34A853"/>
<path d="M5.82309 15.7005C5.2234 14.101 5.2234 12.3016 5.82309 10.6021V7.20318H1.42465C-0.474883 10.9021 -0.474883 15.3007 1.42465 19.0994L5.82309 15.7005Z" fill="#FBBC04"/>
<path d="M13.2209 5.20381C15.1203 5.20381 16.9197 5.90365 18.3194 7.20318L22.1181 3.40443C19.7188 1.20505 16.5199 -0.0944781 13.3208 0.0053657C8.32235 0.0053657 3.72391 2.80459 1.52454 7.30318L5.92313 10.7021C6.82282 7.50303 9.82188 5.20381 13.2209 5.20381Z" fill="#EA4335"/>
</svg>
