<svg width="47" height="37" viewBox="0 0 47 37" fill="none" xmlns="http://www.w3.org/2000/svg">
<path d="M8.5529 36.3896V33.9691C8.5529 33.041 7.98797 32.436 7.01966 32.436C6.5356 32.436 6.0111 32.5974 5.64796 33.1219C5.36568 32.678 4.96229 32.436 4.35712 32.436C3.95355 32.436 3.55035 32.5569 3.22745 33.0007V32.5167H2.38025V36.3896H3.22745V34.2513C3.22745 33.5657 3.59059 33.2428 4.15552 33.2428C4.72008 33.2428 5.00273 33.6059 5.00273 34.2513V36.3896H5.84993V34.2513C5.84993 33.5657 6.25313 33.2428 6.77763 33.2428C7.34255 33.2428 7.62483 33.6059 7.62483 34.2513V36.3896H8.5529ZM21.0994 32.5167H19.7279V31.3468H18.8807V32.5167H18.1142V33.283H18.8805V35.0583C18.8805 35.9459 19.2437 36.4702 20.212 36.4702C20.5751 36.4702 20.9783 36.3493 21.261 36.188L21.0188 35.4617C20.7767 35.623 20.4944 35.6635 20.2927 35.6635C19.8893 35.6635 19.7279 35.4214 19.7279 35.0179V33.283H21.0994V32.5167ZM28.2806 32.4358C27.7966 32.4358 27.4739 32.678 27.2721 33.0007V32.5167H26.4249V36.3896H27.2721V34.2111C27.2721 33.5657 27.5544 33.2025 28.0789 33.2025C28.2402 33.2025 28.442 33.243 28.6034 33.2832L28.8454 32.4764C28.684 32.436 28.442 32.436 28.2806 32.436V32.4358ZM17.4283 32.8394C17.0248 32.5569 16.46 32.436 15.8549 32.436C14.8867 32.436 14.2413 32.9201 14.2413 33.6866C14.2413 34.3322 14.7254 34.6952 15.5726 34.8163L15.976 34.8567C16.4198 34.9372 16.6618 35.0583 16.6618 35.2601C16.6618 35.5424 16.3391 35.7441 15.7742 35.7441C15.2094 35.7441 14.7656 35.5424 14.4832 35.3408L14.0798 35.9862C14.5236 36.3089 15.1288 36.4702 15.7337 36.4702C16.8634 36.4702 17.509 35.9459 17.509 35.2197C17.509 34.5338 16.9845 34.1707 16.1776 34.0497L15.7742 34.0093C15.411 33.9689 15.1288 33.8884 15.1288 33.6464C15.1288 33.3639 15.411 33.2025 15.8549 33.2025C16.3391 33.2025 16.8232 33.4041 17.0652 33.5252L17.4283 32.8394ZM39.9399 32.436C39.4557 32.436 39.133 32.678 38.9312 33.0007V32.5167H38.084V36.3896H38.9312V34.2111C38.9312 33.5657 39.2136 33.2025 39.7379 33.2025C39.8995 33.2025 40.1013 33.243 40.2626 33.2832L40.5047 32.4764C40.3433 32.436 40.1013 32.436 39.9399 32.436ZM29.1279 34.4531C29.1279 35.623 29.9346 36.4702 31.1854 36.4702C31.7501 36.4702 32.1535 36.3493 32.5569 36.0266L32.1535 35.3408C31.8308 35.5828 31.5081 35.7037 31.145 35.7037C30.4591 35.7037 29.9751 35.2197 29.9751 34.4531C29.9751 33.727 30.4591 33.2428 31.145 33.2025C31.5081 33.2025 31.8308 33.3235 32.1535 33.5657L32.5569 32.8798C32.1535 32.5569 31.7501 32.436 31.1854 32.436C29.9346 32.436 29.1279 33.2832 29.1279 34.4531ZM36.9545 34.4531V32.5167H36.1073V33.0007C35.8248 32.6378 35.4214 32.436 34.8969 32.436C33.8077 32.436 32.9605 33.2832 32.9605 34.4531C32.9605 35.623 33.8077 36.4702 34.8969 36.4702C35.4617 36.4702 35.8652 36.2686 36.1073 35.9055V36.3896H36.9545V34.4531ZM33.8479 34.4531C33.8479 33.7673 34.2918 33.2025 35.0179 33.2025C35.7037 33.2025 36.188 33.727 36.188 34.4531C36.188 35.139 35.7037 35.7037 35.0179 35.7037C34.2918 35.6633 33.8479 35.139 33.8479 34.4531ZM23.7219 32.436C22.5922 32.436 21.7853 33.2428 21.7853 34.4531C21.7853 35.6635 22.5921 36.4702 23.7622 36.4702C24.3269 36.4702 24.8918 36.3089 25.3356 35.9459L24.9321 35.3408C24.6094 35.5828 24.206 35.7441 23.8026 35.7441C23.2781 35.7441 22.7536 35.5021 22.6325 34.8161H25.497V34.4936C25.5374 33.2428 24.8113 32.436 23.7219 32.436ZM23.7219 33.1621C24.2462 33.1621 24.6095 33.485 24.69 34.0902H22.6729C22.7536 33.5657 23.1167 33.1621 23.7219 33.1621ZM44.7407 34.4531V30.9836H43.8935V33.0007C43.611 32.6378 43.2076 32.436 42.6831 32.436C41.5939 32.436 40.7467 33.2832 40.7467 34.4531C40.7467 35.623 41.5939 36.4702 42.6831 36.4702C43.2481 36.4702 43.6514 36.2686 43.8935 35.9055V36.3896H44.7407V34.4531ZM41.6343 34.4531C41.6343 33.7673 42.078 33.2025 42.8042 33.2025C43.4901 33.2025 43.9742 33.727 43.9742 34.4531C43.9742 35.139 43.4901 35.7037 42.8042 35.7037C42.078 35.6633 41.6343 35.139 41.6343 34.4531ZM13.3132 34.4531V32.5167H12.466V33.0007C12.1836 32.6378 11.7802 32.436 11.2557 32.436C10.1664 32.436 9.31924 33.2832 9.31924 34.4531C9.31924 35.623 10.1664 36.4702 11.2557 36.4702C11.8206 36.4702 12.224 36.2686 12.466 35.9055V36.3896H13.3132V34.4531ZM10.1664 34.4531C10.1664 33.7673 10.6103 33.2025 11.3364 33.2025C12.0222 33.2025 12.5065 33.727 12.5065 34.4531C12.5065 35.139 12.0222 35.7037 11.3364 35.7037C10.6103 35.6633 10.1664 35.139 10.1664 34.4531Z" fill="black"/>
<path d="M17.1458 3.10635H29.8539V25.9406H17.1458V3.10635Z" fill="#FF5F00"/>
<path d="M17.9528 14.5236C17.9528 9.88418 20.1313 5.76908 23.4797 3.10636C21.019 1.16991 17.9126 0 14.5238 0C6.49518 0 0 6.49518 0 14.5236C0 22.5518 6.49518 29.0472 14.5236 29.0472C17.9124 29.0472 21.0188 27.8773 23.4797 25.9406C20.1313 23.3184 17.9528 19.163 17.9528 14.5236Z" fill="#EB001B"/>
<path d="M46.9999 14.5236C46.9999 22.5518 40.5047 29.0472 32.4763 29.0472C29.0874 29.0472 25.9811 27.8773 23.5201 25.9406C26.909 23.2781 29.0472 19.163 29.0472 14.5236C29.0472 9.88418 26.8685 5.76908 23.5201 3.10636C25.9809 1.16991 29.0874 0 32.4763 0C40.5047 0 46.9999 6.53561 46.9999 14.5236Z" fill="#F79E1B"/>
</svg>
