<svg width="29" height="34" viewBox="0 0 29 34" fill="none" xmlns="http://www.w3.org/2000/svg">
<path d="M24.4215 2.5444C22.8543 0.763509 20.0214 0 16.3972 0H5.87873C5.52015 1.32372e-05 5.17333 0.127555 4.90064 0.359695C4.62794 0.591835 4.44725 0.913345 4.39105 1.26642L0.0113654 28.9594C-0.0756885 29.5055 0.348446 30 0.903611 30H7.39733L9.02819 19.6871L8.97758 20.01C9.09376 19.281 9.71911 18.7434 10.4596 18.7434H13.5454C19.6075 18.7434 24.3542 16.2886 25.7407 9.18734C25.7819 8.97732 25.8175 8.7729 25.8484 8.57319C25.6734 8.48079 25.6734 8.48079 25.8484 8.57319C26.2613 5.94851 25.8456 4.1619 24.4215 2.5444Z" fill="#27346A"/>
<path d="M11.5129 7.62789C11.6904 7.54361 11.8846 7.49994 12.0812 7.50006H20.3275C21.304 7.50006 22.2148 7.56341 23.0471 7.69697C23.28 7.73399 23.5117 7.77819 23.7418 7.82951C24.068 7.90128 24.3905 7.98911 24.708 8.09269C25.1171 8.22894 25.4982 8.38761 25.8484 8.57342C26.2612 5.94766 25.8455 4.16201 24.4215 2.54446C22.8534 0.763529 20.0213 0 16.3971 0H5.87782C5.13719 0 4.50712 0.537577 4.39104 1.26646L0.011366 28.9592C-0.0756877 29.5062 0.348446 30 0.90271 30H7.39732L10.7808 8.60795C10.8141 8.39769 10.8981 8.19863 11.0256 8.0279C11.1532 7.85718 11.3204 7.71991 11.5129 7.62789Z" fill="#27346A"/>
<path d="M26.0232 9.60998C24.6203 16.6621 19.8178 19.1012 13.6843 19.1012H10.5612C9.81201 19.1012 9.17918 19.6352 9.06277 20.3593L7.00998 33.0952C6.93328 33.5699 7.30836 34 7.79905 34H13.3376C13.6548 33.9999 13.9616 33.8891 14.2028 33.6874C14.444 33.4856 14.6038 33.2063 14.6534 32.8996L14.7073 32.6234L15.7512 26.1487L15.8184 25.7909C15.868 25.4842 16.0278 25.2049 16.2689 25.0032C16.5101 24.8015 16.8169 24.6906 17.1342 24.6905H17.9631C23.3282 24.6905 27.5293 22.5573 28.7569 16.3877C29.2694 13.8095 29.0042 11.6569 27.6487 10.1449C27.2375 9.68694 26.7269 9.30872 26.1321 9C26.0999 9.19936 26.065 9.40138 26.0232 9.60998Z" fill="#2790C3"/>
<path d="M24.5368 8.47638C24.3189 8.41601 24.099 8.36256 23.8774 8.31612C23.6453 8.2677 23.4119 8.22559 23.1773 8.18984C22.3377 8.06088 21.4207 8 20.4358 8H12.1274C11.9292 7.99958 11.7334 8.04183 11.5548 8.12359C11.3605 8.21158 11.1918 8.34317 11.0633 8.50697C10.9347 8.67078 10.8502 8.86185 10.817 9.06365L9.051 19.6902L9 20C9.11617 19.3008 9.7463 18.785 10.4926 18.785H13.6029C19.7114 18.785 24.4943 16.4303 25.8914 9.61876C25.933 9.4173 25.9679 9.22209 26 9.02966C25.6462 8.85241 25.2632 8.69924 24.8508 8.56942C24.7467 8.53668 24.6421 8.50566 24.5369 8.47638" fill="#1F264F"/>
</svg>
