<svg width="97" height="40" viewBox="0 0 97 40" fill="none" xmlns="http://www.w3.org/2000/svg">
<path d="M97 20.6676C97 13.8318 93.6588 8.43791 87.2731 8.43791C80.8601 8.43791 76.9801 13.832 76.9801 20.6143C76.9801 28.6516 81.5609 32.7104 88.1351 32.7104C91.3416 32.7104 93.7666 31.9894 95.5988 30.9748V25.6342C93.7668 26.5422 91.665 27.103 88.9975 27.103C86.3838 27.103 84.0666 26.195 83.7703 23.0442H96.9462C96.9462 22.6969 97 21.3084 97 20.6676ZM83.6894 18.1309C83.6894 15.1136 85.5487 13.8585 87.2462 13.8585C88.8897 13.8585 90.6412 15.1136 90.6412 18.1309H83.6894ZM66.5799 8.43791C63.9391 8.43791 62.2416 9.66618 61.2987 10.5208L60.9482 8.86523H55.0206V40L61.7566 38.5849L61.7837 31.0281C62.7537 31.7224 64.1816 32.7104 66.5528 32.7104C71.3759 32.7104 75.7678 28.8652 75.7678 20.4007C75.7409 12.6569 71.295 8.43791 66.5797 8.43791H66.5799ZM64.9631 26.8358C63.3734 26.8358 62.4301 26.2752 61.7837 25.5809L61.7566 15.6742C62.4572 14.8999 63.4272 14.366 64.9631 14.366C67.415 14.366 69.1125 17.0895 69.1125 20.5875C69.1125 24.1656 67.4419 26.8358 64.9631 26.8358ZM45.7516 6.86249L52.5147 5.42056V0L45.7516 1.41527V6.86249ZM45.7516 8.89189H52.5147V32.2564H45.7516V8.89189ZM38.5037 10.8678L38.0725 8.89189H32.2525V32.2564H38.9887V16.422C40.5782 14.366 43.2728 14.7398 44.1081 15.0334V8.89189C43.2459 8.5714 40.0934 7.98393 38.5037 10.8678ZM25.0313 3.09752L18.4569 4.48594L18.43 25.8745C18.43 29.8267 21.4209 32.737 25.4087 32.737C27.6181 32.737 29.2347 32.3366 30.1238 31.8559V26.4354C29.2618 26.7825 25.0044 28.0108 25.0044 24.0588V14.5794H30.1238V8.89189H25.0044L25.0313 3.09752ZM6.8169 15.6742C6.8169 14.6329 7.6791 14.2323 9.10739 14.2323C11.155 14.2323 13.7416 14.8466 15.7894 15.9414V9.66618C13.5531 8.78506 11.3437 8.43791 9.10739 8.43791C3.6375 8.43791 0 11.2684 0 15.9949C0 23.3645 10.2388 22.1897 10.2388 25.3674C10.2388 26.5955 9.1612 26.9962 7.6522 26.9962C5.4159 26.9962 2.5597 26.0882 0.296305 24.8599V31.2151C2.8022 32.2832 5.335 32.737 7.6522 32.737C13.2566 32.737 17.1097 29.9869 17.1097 25.2071C17.0828 17.2498 6.8169 18.6649 6.8169 15.6742Z" fill="#635BFF"/>
</svg>
