<svg width="87" height="28" viewBox="0 0 87 28" fill="none" xmlns="http://www.w3.org/2000/svg">
<path d="M44.9943 8.95127C44.9447 12.8518 48.4821 15.0283 51.1468 16.3225C53.8846 17.6502 54.8042 18.5017 54.7934 19.6892C54.773 21.5064 52.6095 22.3084 50.5851 22.3396C47.0531 22.3941 44.9994 21.3892 43.3668 20.6291L42.0944 26.5629C43.7325 27.3151 46.7656 27.9712 49.9108 28C57.2939 28 62.1241 24.3677 62.1503 18.7361C62.1792 11.5888 52.2309 11.1932 52.2989 7.9985C52.3223 7.0298 53.2498 5.99608 55.282 5.73325C56.288 5.60047 59.0648 5.49886 62.2132 6.94378L63.4488 1.20274C61.7557 0.588328 59.5797 0 56.8705 0C49.9213 0 45.0337 3.68171 44.9943 8.95127ZM75.3223 0.494507C73.9741 0.494507 72.838 1.27827 72.331 2.48101L61.7846 27.5783H69.1623L70.6304 23.5345H79.6458L80.4974 27.5783H87L81.3256 0.494507H75.3223ZM76.3544 7.81086L78.4835 17.9811H72.6525L76.3544 7.81086ZM36.0493 0.494846L30.2339 27.578H37.2642L43.0769 0.494169L36.0493 0.494846ZM25.649 0.494169L18.3315 18.9288L15.3715 3.25461C15.0242 1.50486 13.6525 0.494507 12.1294 0.494507H0.167543L0 1.28098C2.45571 1.81207 5.24583 2.66865 6.93621 3.58518C7.9707 4.14506 8.26568 4.63449 8.60552 5.96492L14.2119 27.5783H21.6413L33.0315 0.494507L25.649 0.494169Z" fill="url(#paint0_linear_54_13)"/>
<defs>
<linearGradient id="paint0_linear_54_13" x1="3999.74" y1="84.168" x2="4080.51" y2="-2791.49" gradientUnits="userSpaceOnUse">
<stop stop-color="#222357"/>
<stop offset="1" stop-color="#254AA5"/>
</linearGradient>
</defs>
</svg>
