<svg width="200" height="148" viewBox="0 0 505 372" fill="none" xmlns="http://www.w3.org/2000/svg">
<path d="M268.207 335.39C360.823 335.39 435.902 260.31 435.902 167.695C435.902 75.0796 360.823 0 268.207 0C175.592 0 100.512 75.0796 100.512 167.695C100.512 260.31 175.592 335.39 268.207 335.39Z" fill="#DBE8EC"/>
<path d="M504.822 148.057V129.948C504.822 126.494 503.45 123.182 501.008 120.741C498.566 118.299 495.254 116.927 491.801 116.927H435.842C434.132 116.927 432.439 116.59 430.859 115.936C429.279 115.281 427.844 114.322 426.635 113.113C425.426 111.904 424.466 110.469 423.812 108.889C423.158 107.309 422.821 105.616 422.821 103.906V85.7963C422.821 82.343 424.193 79.0311 426.635 76.5892C429.077 74.1473 432.388 72.7754 435.842 72.7754H457.293C460.746 72.7754 464.058 71.4036 466.5 68.9617C468.942 66.5198 470.314 63.2079 470.314 59.7546V41.6449C470.314 38.1915 468.942 34.8796 466.5 32.4378C464.058 29.9959 460.746 28.624 457.293 28.624H73.3737C69.9203 28.624 66.6084 29.9959 64.1666 32.4378C61.7247 34.8796 60.3528 38.1915 60.3528 41.6449V59.7546C60.3528 63.2079 61.7247 66.5198 64.1666 68.9617C66.6084 71.4036 69.9203 72.7754 73.3737 72.7754C76.827 72.7754 80.1389 74.1473 82.5808 76.5892C85.0227 79.0311 86.3946 82.343 86.3946 85.7963V103.906C86.3946 107.359 85.0227 110.671 82.5808 113.113C80.1389 115.555 76.827 116.927 73.3737 116.927H13.0209C9.56752 116.927 6.25562 118.299 3.81373 120.741C1.37184 123.182 0 126.494 0 129.948V148.057C5.30432e-06 151.511 1.37185 154.823 3.81374 157.265C6.25562 159.706 9.56753 161.078 13.0209 161.078H72.7786C74.4885 161.078 76.1817 161.415 77.7615 162.069C79.3412 162.724 80.7766 163.683 81.9857 164.892C83.1948 166.101 84.154 167.537 84.8083 169.116C85.4627 170.696 85.7995 172.389 85.7995 174.099V192.209C86.1185 208.78 49.9698 205.23 42.7786 205.23H42.7309C39.2775 205.23 35.9656 206.602 33.5237 209.044C31.0818 211.485 29.71 214.797 29.71 218.251V236.36C29.71 239.814 31.0818 243.126 33.5237 245.567C35.9656 248.009 39.2775 249.381 42.7309 249.381H75.5894C79.0427 249.381 82.3546 250.753 84.7965 253.195C87.2384 255.637 88.6103 258.949 88.6103 262.402V280.512C88.6103 283.965 87.2384 287.277 84.7965 289.719C82.3546 292.161 79.0427 293.533 75.5894 293.533H38.6759C35.2226 293.533 31.9107 294.904 29.4688 297.346C27.0269 299.788 25.655 303.1 25.655 306.553V324.663C25.655 328.117 27.0269 331.428 29.4688 333.87C31.9107 336.312 35.2226 337.684 38.6759 337.684H454.283C457.737 337.684 461.049 336.312 463.491 333.87C465.932 331.428 467.304 328.117 467.304 324.663V306.553C467.304 303.1 465.932 299.788 463.491 297.346C461.049 294.904 457.737 293.533 454.283 293.533H432.994C429.54 293.533 426.228 292.161 423.787 289.719C421.345 287.277 419.973 283.965 419.973 280.512V262.402C419.973 258.949 421.345 255.637 423.787 253.195C426.228 250.753 429.54 249.381 432.994 249.381H469.614C473.067 249.381 476.379 248.009 478.821 245.567C481.263 243.126 482.635 239.814 482.635 236.36V218.251C482.635 214.797 481.263 211.485 478.821 209.044C476.379 206.602 473.067 205.23 469.614 205.23H451.539C448.085 205.23 444.773 203.858 442.331 201.416C439.889 198.974 438.518 195.662 438.518 192.209V174.099C438.518 172.389 438.854 170.696 439.509 169.116C440.163 167.537 441.122 166.101 442.331 164.892C443.54 163.683 444.976 162.724 446.556 162.069C448.135 161.415 449.829 161.078 451.539 161.078H491.801C495.254 161.078 498.566 159.706 501.008 157.265C503.45 154.823 504.822 151.511 504.822 148.057Z" fill="#DBE8EC"/>
<path d="M270.916 119.809C296.85 119.809 317.875 98.7844 317.875 72.8496C317.875 46.9149 296.85 25.8906 270.916 25.8906C244.981 25.8906 223.957 46.9149 223.957 72.8496C223.957 98.7844 244.981 119.809 270.916 119.809Z" fill="#39C6A5"/>
<path d="M254.291 63.0715C254.29 63.0134 254.29 62.9553 254.29 62.8972C254.29 59.6192 255.259 56.4144 257.075 53.6855C258.891 50.9567 261.474 48.8256 264.498 47.5602C267.522 46.2948 270.852 45.9515 274.07 46.5735C277.289 47.1956 280.252 48.7551 282.586 51.0561C284.921 53.3571 286.523 56.2969 287.192 59.506C287.86 62.715 287.566 66.0501 286.344 69.092C285.123 72.134 283.029 74.7469 280.327 76.6025C277.625 78.4581 274.434 79.4735 271.157 79.5211V94.6178" stroke="white" stroke-width="6" stroke-linecap="round" stroke-linejoin="round"/>
<path d="M349.906 41.2393H382.21" stroke="#3086A3" stroke-width="3" stroke-miterlimit="10" stroke-linecap="round"/>
<path d="M349.906 50.5498H382.21" stroke="#3086A3" stroke-width="3" stroke-miterlimit="10" stroke-linecap="round"/>
<path d="M349.906 59.8594H382.21" stroke="#3086A3" stroke-width="3" stroke-miterlimit="10" stroke-linecap="round"/>
<path d="M49.3916 218.062H81.6946" stroke="#3086A3" stroke-width="3" stroke-miterlimit="10" stroke-linecap="round"/>
<path d="M49.3916 227.372H81.6946" stroke="#3086A3" stroke-width="3" stroke-miterlimit="10" stroke-linecap="round"/>
<path d="M49.3916 236.683H81.6946" stroke="#3086A3" stroke-width="3" stroke-miterlimit="10" stroke-linecap="round"/>
<path d="M411.879 284.456H444.182" stroke="#3086A3" stroke-width="3" stroke-miterlimit="10" stroke-linecap="round"/>
<path d="M411.879 293.767H444.182" stroke="#3086A3" stroke-width="3" stroke-miterlimit="10" stroke-linecap="round"/>
<path d="M411.879 303.077H444.182" stroke="#3086A3" stroke-width="3" stroke-miterlimit="10" stroke-linecap="round"/>
<path d="M450.816 238.603C458.441 238.603 464.623 232.422 464.623 224.796C464.623 217.171 458.441 210.989 450.816 210.989C443.19 210.989 437.009 217.171 437.009 224.796C437.009 232.422 443.19 238.603 450.816 238.603Z" fill="#39C6A5"/>
<path d="M414.379 241.92C418.333 241.92 421.538 238.714 421.538 234.761C421.538 230.807 418.333 227.602 414.379 227.602C410.426 227.602 407.22 230.807 407.22 234.761C407.22 238.714 410.426 241.92 414.379 241.92Z" fill="#39C6A5"/>
<path d="M432.559 201.239C438.207 201.239 442.787 196.66 442.787 191.011C442.787 185.362 438.207 180.783 432.559 180.783C426.91 180.783 422.331 185.362 422.331 191.011C422.331 196.66 426.91 201.239 432.559 201.239Z" fill="#39C6A5"/>
<path d="M136.632 330.402C145.705 330.402 153.06 323.047 153.06 313.974C153.06 304.901 145.705 297.546 136.632 297.546C127.559 297.546 120.204 304.901 120.204 313.974C120.204 323.047 127.559 330.402 136.632 330.402Z" fill="#39C6A5"/>
<path d="M105.24 310.831C109.966 310.831 113.797 307 113.797 302.274C113.797 297.548 109.966 293.717 105.24 293.717C100.514 293.717 96.6826 297.548 96.6826 302.274C96.6826 307 100.514 310.831 105.24 310.831Z" fill="#39C6A5"/>
<path d="M113.1 278.122C115.826 278.122 118.036 275.912 118.036 273.186C118.036 270.46 115.826 268.25 113.1 268.25C110.373 268.25 108.164 270.46 108.164 273.186C108.164 275.912 110.373 278.122 113.1 278.122Z" fill="#39C6A5"/>
<path d="M140.424 288.511C146.959 288.511 152.257 283.213 152.257 276.678C152.257 270.143 146.959 264.845 140.424 264.845C133.888 264.845 128.591 270.143 128.591 276.678C128.591 283.213 133.888 288.511 140.424 288.511Z" fill="#39C6A5"/>
<path d="M148.662 83.7867C157.735 83.7867 165.09 76.4316 165.09 67.3587C165.09 58.2857 157.735 50.9307 148.662 50.9307C139.589 50.9307 132.234 58.2857 132.234 67.3587C132.234 76.4316 139.589 83.7867 148.662 83.7867Z" fill="#39C6A5"/>
<path d="M149.328 42.4206C154.054 42.4206 157.885 38.5895 157.885 33.8636C157.885 29.1377 154.054 25.3066 149.328 25.3066C144.603 25.3066 140.771 29.1377 140.771 33.8636C140.771 38.5895 144.603 42.4206 149.328 42.4206Z" fill="#39C6A5"/>
<path d="M206.323 46.27C210.414 46.27 213.729 42.9542 213.729 38.864C213.729 34.7738 210.414 31.458 206.323 31.458C202.233 31.458 198.917 34.7738 198.917 38.864C198.917 42.9542 202.233 46.27 206.323 46.27Z" fill="#39C6A5"/>
<path d="M179.38 36.6025C182.106 36.6025 184.316 34.3925 184.316 31.6665C184.316 28.9404 182.106 26.7305 179.38 26.7305C176.654 26.7305 174.444 28.9404 174.444 31.6665C174.444 34.3925 176.654 36.6025 179.38 36.6025Z" fill="#39C6A5"/>
<path d="M185.115 70.4424C191.651 70.4424 196.948 65.1446 196.948 58.6094C196.948 52.0742 191.651 46.7764 185.115 46.7764C178.58 46.7764 173.282 52.0742 173.282 58.6094C173.282 65.1446 178.58 70.4424 185.115 70.4424Z" fill="#39C6A5"/>
<path d="M411.097 157.543H132.86L123.788 134.543H411.097C411.454 134.543 411.808 134.613 412.138 134.75C412.468 134.887 412.768 135.087 413.021 135.34C413.274 135.593 413.474 135.893 413.611 136.223C413.748 136.553 413.818 136.907 413.818 137.265V154.822C413.818 155.179 413.748 155.533 413.611 155.863C413.474 156.193 413.274 156.493 413.021 156.746C412.768 156.999 412.468 157.199 412.138 157.336C411.808 157.473 411.454 157.543 411.097 157.543Z" fill="#409CB5"/>
<path d="M370.561 278.389H181.365C180.442 278.389 179.541 278.107 178.782 277.582C178.023 277.056 177.443 276.311 177.118 275.447L132.86 157.543H401.407L374.987 274.85C374.76 275.854 374.199 276.752 373.395 277.395C372.59 278.039 371.591 278.389 370.561 278.389Z" fill="#39C6A5"/>
<path d="M387.801 217.969C368.446 219.21 349.091 219.86 329.736 220.301C320.058 220.577 310.381 220.639 300.703 220.801L271.671 220.967C252.316 220.985 232.961 220.766 213.606 220.31C194.251 219.87 174.896 219.218 155.541 217.969C174.896 216.72 194.251 216.067 213.606 215.628C232.961 215.193 252.316 214.974 271.671 214.971L300.703 215.136C310.381 215.299 320.058 215.36 329.736 215.637C349.091 216.078 368.446 216.728 387.801 217.969Z" fill="#3086A3"/>
<path d="M349.942 157.543C348.84 168.089 347.155 178.503 345.294 188.879C343.41 199.248 341.307 209.569 338.986 219.84C336.677 230.114 334.155 240.34 331.42 250.518C330.04 255.605 328.611 260.68 327.085 265.733C326.296 268.254 325.544 270.783 324.724 273.297L324.092 275.207C323.844 275.908 323.439 276.543 322.91 277.066C322.414 277.557 321.813 277.931 321.153 278.16C320.493 278.389 319.791 278.468 319.096 278.389C319.723 278.315 320.327 278.106 320.865 277.777C321.404 277.447 321.865 277.005 322.216 276.481C322.545 275.998 322.761 275.448 322.849 274.87L323.101 272.932C323.438 270.309 323.843 267.702 324.211 265.086C324.999 259.866 325.884 254.669 326.817 249.482C328.702 239.112 330.808 228.792 333.134 218.522C335.451 208.25 337.976 198.024 340.708 187.845C343.475 177.675 346.417 167.543 349.942 157.543ZM241.825 278.389C241.102 278.467 240.372 278.376 239.691 278.123C239.009 277.87 238.397 277.462 237.901 276.931C237.414 276.372 237.023 275.736 236.745 275.049L235.848 273.192C234.654 270.716 233.527 268.214 232.364 265.726C230.086 260.731 227.901 255.702 225.761 250.656C221.5 240.556 217.448 230.378 213.607 220.121C209.753 209.869 206.104 199.54 202.659 189.134C199.243 178.717 195.999 168.236 193.32 157.543C198.338 167.358 202.793 177.385 207.075 187.476C211.336 197.576 215.385 207.755 219.222 218.013C223.068 228.269 226.715 238.599 230.163 249.004C231.872 254.211 233.536 259.436 235.107 264.696C235.868 267.335 236.666 269.96 237.396 272.611L237.943 274.599C238.068 275.223 238.293 275.823 238.61 276.374C238.96 276.93 239.431 277.4 239.987 277.749C240.544 278.098 241.172 278.316 241.825 278.389Z" fill="#3086A3"/>
<path d="M228.344 371.101C238.695 371.101 247.087 362.71 247.087 352.358C247.087 342.007 238.695 333.615 228.344 333.615C217.992 333.615 209.601 342.007 209.601 352.358C209.601 362.71 217.992 371.101 228.344 371.101Z" fill="#409CB5"/>
<path d="M228.344 361.009C233.121 361.009 236.995 357.136 236.995 352.358C236.995 347.58 233.121 343.707 228.344 343.707C223.566 343.707 219.693 347.58 219.693 352.358C219.693 357.136 223.566 361.009 228.344 361.009Z" fill="#DBE8EC"/>
<path d="M336.462 371.101C346.814 371.101 355.206 362.71 355.206 352.358C355.206 342.007 346.814 333.615 336.462 333.615C326.111 333.615 317.719 342.007 317.719 352.358C317.719 362.71 326.111 371.101 336.462 371.101Z" fill="#409CB5"/>
<path d="M336.463 361.009C341.24 361.009 345.114 357.136 345.114 352.358C345.114 347.58 341.24 343.707 336.463 343.707C331.685 343.707 327.812 347.58 327.812 352.358C327.812 357.136 331.685 361.009 336.463 361.009Z" fill="#DBE8EC"/>
<path d="M273.331 157.543C275.17 167.54 276.413 177.572 277.478 187.615C278.517 197.659 279.333 207.717 279.925 217.788C280.53 227.858 280.917 237.941 281.086 248.037C281.224 258.135 281.178 268.244 280.531 278.389C278.684 268.393 277.438 258.361 276.376 248.318C275.337 238.273 274.524 228.216 273.937 218.144C273.341 208.074 272.956 197.99 272.784 187.894C272.648 177.796 272.692 167.687 273.331 157.543Z" fill="#3086A3"/>
<path d="M368.176 324.102H198.623C198.016 324.102 197.423 323.917 196.923 323.574C196.423 323.23 196.039 322.742 195.822 322.176L97.6233 66.1982H45.6096C44.814 66.1982 44.0509 65.8822 43.4883 65.3196C42.9257 64.757 42.6096 63.9939 42.6096 63.1982C42.6096 62.4026 42.9257 61.6395 43.4883 61.0769C44.0509 60.5143 44.814 60.1982 45.6096 60.1982H99.6856C100.292 60.1983 100.885 60.3824 101.385 60.7262C101.885 61.07 102.269 61.5574 102.487 62.124L200.685 318.102H368.176C368.972 318.102 369.735 318.418 370.298 318.98C370.86 319.543 371.176 320.306 371.176 321.102C371.176 321.897 370.86 322.66 370.298 323.223C369.735 323.786 368.972 324.102 368.176 324.102Z" fill="#409CB5"/>
<path d="M71.6964 54.5479H36.0964C34.9919 54.5479 34.0964 55.4433 34.0964 56.5479V70.9079C34.0964 72.0124 34.9919 72.9079 36.0964 72.9079H71.6964C72.801 72.9079 73.6964 72.0124 73.6964 70.9079V56.5479C73.6964 55.4433 72.801 54.5479 71.6964 54.5479Z" fill="#409CB5"/>
<path d="M271 110C273.209 110 275 108.209 275 106C275 103.791 273.209 102 271 102C268.791 102 267 103.791 267 106C267 108.209 268.791 110 271 110Z" fill="white"/>
</svg>
