<svg width="78" height="28" viewBox="0 0 78 28" fill="none" xmlns="http://www.w3.org/2000/svg">
<path d="M5.87601 4.78206C10.9356 0.245775 18.7345 0.616674 23.3233 5.53841C23.5607 5.84102 23.7932 6.11386 24.0304 6.41559C24.0375 6.42456 24.0421 6.43519 24.044 6.44646C24.0454 6.45537 24.0487 6.46388 24.0533 6.47161C24.1357 6.6086 24.1701 6.76896 24.1509 6.92781C24.1311 7.09119 24.0558 7.24327 23.9374 7.35911L13.735 16.5081C13.4596 16.7732 13.0413 16.7467 12.7743 16.4752L12.0403 15.6814C11.7278 15.3352 11.567 14.8802 11.593 14.4158C11.6191 13.9514 11.8299 13.5155 12.1794 13.2032L18.7092 7.32641C18.9646 7.08059 19.0076 6.70683 18.7996 6.43732C18.7664 6.39441 18.7313 6.3512 18.6952 6.31075C18.6411 6.2501 18.5615 6.22214 18.4904 6.18276C16.9061 5.30533 15.0822 4.93743 13.2715 5.13176C11.4201 5.33046 9.67848 6.10667 8.29892 7.34799C4.71951 10.6051 4.43296 16.0979 7.68176 19.6317C9.24271 21.3305 11.4236 22.3447 13.7458 22.4517C16.0679 22.5587 18.3414 21.7497 20.0672 20.2024C20.4183 19.892 20.8789 19.7313 21.3483 19.7553C21.8177 19.7794 22.2577 19.9864 22.5721 20.3309L23.27 21.0991C23.506 21.3756 23.5037 21.7538 23.2593 22.0138C23.0199 22.3045 22.7444 22.5696 22.438 22.8397C20.0079 25.0211 16.8059 26.1632 13.5342 26.0156C10.2625 25.8681 7.1883 24.4429 4.98571 22.0527C0.418003 17.0646 0.821396 9.34901 5.87601 4.78206Z" fill="#39C6A5"/>
<path d="M28.6019 6.20703V26H25.9652V6.20703H28.6019ZM31.1017 14.5859H33.7384V15.6406C34.2463 15.1094 34.6798 14.75 35.0392 14.5625C35.422 14.3672 35.9025 14.2695 36.4806 14.2695C37.7697 14.2695 38.7892 14.832 39.5392 15.957C40.3673 14.832 41.4884 14.2695 42.9025 14.2695C45.4728 14.2695 46.758 15.8281 46.758 18.9453V26H44.1095V19.6602C44.1095 18.5664 43.9767 17.793 43.7111 17.3398C43.4377 16.8789 42.9884 16.6484 42.3634 16.6484C41.6369 16.6484 41.1056 16.9219 40.7697 17.4688C40.4416 18.0156 40.2775 18.8945 40.2775 20.1055V26H37.6291V19.6953C37.6291 17.6641 37.0431 16.6484 35.8713 16.6484C35.1291 16.6484 34.5861 16.9258 34.2423 17.4805C33.9064 18.0352 33.7384 18.9102 33.7384 20.1055V26H31.1017V14.5859ZM57.6602 14.5859H60.3086V26H57.6602V24.8047C56.5742 25.8203 55.4062 26.3281 54.1562 26.3281C52.5781 26.3281 51.2734 25.7578 50.2422 24.6172C49.2188 23.4531 48.707 22 48.707 20.2578C48.707 18.5469 49.2188 17.1211 50.2422 15.9805C51.2656 14.8398 52.5469 14.2695 54.0859 14.2695C55.4141 14.2695 56.6055 14.8164 57.6602 15.9102V14.5859ZM51.4023 20.2578C51.4023 21.3516 51.6953 22.2422 52.2812 22.9297C52.8828 23.625 53.6406 23.9727 54.5547 23.9727C55.5312 23.9727 56.3203 23.6367 56.9219 22.9648C57.5234 22.2695 57.8242 21.3867 57.8242 20.3164C57.8242 19.2461 57.5234 18.3633 56.9219 17.668C56.3203 16.9883 55.5391 16.6484 54.5781 16.6484C53.6719 16.6484 52.9141 16.9922 52.3047 17.6797C51.7031 18.375 51.4023 19.2344 51.4023 20.2578ZM62.7967 14.5859H65.4334V15.6055C65.9178 15.0977 66.3475 14.75 66.7225 14.5625C67.1053 14.3672 67.5584 14.2695 68.0819 14.2695C68.7772 14.2695 69.5037 14.4961 70.2616 14.9492L69.0545 17.3633C68.5545 17.0039 68.0662 16.8242 67.5897 16.8242C66.1522 16.8242 65.4334 17.9102 65.4334 20.082V26H62.7967V14.5859ZM74.5192 17.0469V26H71.8825V17.0469H70.7575V14.5859H71.8825V10.4023H74.5192V14.5859H76.57V17.0469H74.5192Z" fill="#39C6A5"/>
</svg>
