<svg width="100" height="37" viewBox="0 0 73 27" fill="none" xmlns="http://www.w3.org/2000/svg">
<path d="M4.28949 7.49089C7.98299 4.17941 13.6762 4.45016 17.026 8.04303C17.1993 8.26394 17.369 8.46311 17.5422 8.68337C17.5474 8.68992 17.5508 8.69768 17.5521 8.70591V8.70591C17.5531 8.71241 17.5555 8.71862 17.5589 8.72427C17.6191 8.82427 17.6442 8.94133 17.6302 9.05729C17.6157 9.17656 17.5608 9.28758 17.4743 9.37214L10.0266 16.0509C9.82551 16.2444 9.52015 16.2251 9.32524 16.0269L8.78945 15.4474C8.56129 15.1947 8.4439 14.8625 8.46292 14.5235C8.48194 14.1845 8.63584 13.8663 8.89096 13.6384L13.6577 9.34827C13.8442 9.16882 13.8755 8.89598 13.7237 8.69924C13.6995 8.66791 13.6738 8.63637 13.6475 8.60684V8.60684C13.608 8.56256 13.5499 8.54215 13.498 8.51341C12.3414 7.87289 11.01 7.60432 9.68821 7.74618C8.33666 7.89123 7.06529 8.45786 6.05821 9.36402C3.44524 11.7417 3.23606 15.7515 5.60769 18.3311C6.74718 19.5712 8.33926 20.3116 10.0344 20.3897C11.7296 20.4679 13.3892 19.8773 14.649 18.7477C14.9054 18.5211 15.2416 18.4038 15.5843 18.4214C15.9269 18.439 16.2481 18.59 16.4776 18.8416L16.9871 19.4023C17.1594 19.6042 17.1577 19.8802 16.9793 20.0701C16.8045 20.2823 16.6034 20.4758 16.3797 20.673C14.6057 22.2654 12.2683 23.0991 9.87997 22.9914C7.49165 22.8837 5.24746 21.8433 3.63957 20.0985C0.305142 16.4571 0.599619 10.8248 4.28949 7.49089Z" fill="#409EFF"/>
<path d="M23.1019 3.20703V23H20.4652V3.20703H23.1019ZM25.6017 11.5859H28.2384V12.6406C28.7463 12.1094 29.1798 11.75 29.5392 11.5625C29.922 11.3672 30.4025 11.2695 30.9806 11.2695C32.2697 11.2695 33.2892 11.832 34.0392 12.957C34.8673 11.832 35.9884 11.2695 37.4025 11.2695C39.9728 11.2695 41.258 12.8281 41.258 15.9453V23H38.6095V16.6602C38.6095 15.5664 38.4767 14.793 38.2111 14.3398C37.9377 13.8789 37.4884 13.6484 36.8634 13.6484C36.1369 13.6484 35.6056 13.9219 35.2697 14.4688C34.9416 15.0156 34.7775 15.8945 34.7775 17.1055V23H32.1291V16.6953C32.1291 14.6641 31.5431 13.6484 30.3713 13.6484C29.6291 13.6484 29.0861 13.9258 28.7423 14.4805C28.4064 15.0352 28.2384 15.9102 28.2384 17.1055V23H25.6017V11.5859ZM52.1602 11.5859H54.8086V23H52.1602V21.8047C51.0742 22.8203 49.9062 23.3281 48.6562 23.3281C47.0781 23.3281 45.7734 22.7578 44.7422 21.6172C43.7188 20.4531 43.207 19 43.207 17.2578C43.207 15.5469 43.7188 14.1211 44.7422 12.9805C45.7656 11.8398 47.0469 11.2695 48.5859 11.2695C49.9141 11.2695 51.1055 11.8164 52.1602 12.9102V11.5859ZM45.9023 17.2578C45.9023 18.3516 46.1953 19.2422 46.7812 19.9297C47.3828 20.625 48.1406 20.9727 49.0547 20.9727C50.0312 20.9727 50.8203 20.6367 51.4219 19.9648C52.0234 19.2695 52.3242 18.3867 52.3242 17.3164C52.3242 16.2461 52.0234 15.3633 51.4219 14.668C50.8203 13.9883 50.0391 13.6484 49.0781 13.6484C48.1719 13.6484 47.4141 13.9922 46.8047 14.6797C46.2031 15.375 45.9023 16.2344 45.9023 17.2578ZM57.2967 11.5859H59.9334V12.6055C60.4178 12.0977 60.8475 11.75 61.2225 11.5625C61.6053 11.3672 62.0584 11.2695 62.5819 11.2695C63.2772 11.2695 64.0037 11.4961 64.7616 11.9492L63.5545 14.3633C63.0545 14.0039 62.5662 13.8242 62.0897 13.8242C60.6522 13.8242 59.9334 14.9102 59.9334 17.082V23H57.2967V11.5859ZM69.0192 14.0469V23H66.3825V14.0469H65.2575V11.5859H66.3825V7.40234H69.0192V11.5859H71.07V14.0469H69.0192Z" fill="#409EFF"/>
</svg>
