<svg width="400" height="250" viewBox="0 0 400 250" fill="none" xmlns="http://www.w3.org/2000/svg">
<g clip-path="url(#clip0_1_1612)">
<g clip-path="url(#clip1_1_1612)">
<path opacity="0.15" d="M298.306 88.1652C298.306 88.1652 288.906 14.6097 233.445 67.4928C162.348 135.281 114.557 0.550316 61.8153 55.5461C33.0014 85.59 109.142 152.783 58.2908 188.144C7.43975 223.505 48.9942 249.977 48.9942 249.977H337.739C337.739 249.977 367.631 252.136 369.894 214.312C372.153 176.489 337.406 176.03 358.971 128.697C380.536 81.3647 305.083 118.292 298.306 88.1652Z" fill="url(#paint0_linear_1_1612)"/>
<g opacity="0.45">
<rect x="293.14" y="147" width="21" height="103" fill="url(#paint1_linear_1_1612)"/>
<rect x="234.14" y="192" width="21" height="58" fill="url(#paint2_linear_1_1612)"/>
<path d="M255.14 111L274.14 95L293.14 111V250H255.14V111Z" fill="url(#paint3_linear_1_1612)"/>
<rect x="261.14" y="116" width="11" height="27" fill="white"/>
<rect x="261.14" y="147" width="11" height="27" fill="white"/>
<rect x="261.14" y="178" width="11" height="27" fill="white"/>
<rect x="276.14" y="116" width="11" height="27" fill="white"/>
<rect x="276.14" y="147" width="11" height="27" fill="white"/>
<rect x="276.14" y="178" width="11" height="27" fill="white"/>
<rect x="261.14" y="210" width="26" height="40" fill="white"/>
<rect x="124.14" y="111" width="28" height="139" fill="url(#paint4_linear_1_1612)"/>
<rect x="129.14" y="103" width="18" height="8" fill="url(#paint5_linear_1_1612)"/>
<path d="M132.14 95L138.14 90.5L144.14 95V103H132.14V95Z" fill="url(#paint6_linear_1_1612)"/>
<path d="M152.14 160L180.14 176V250H152.14V160Z" fill="url(#paint7_linear_1_1612)"/>
</g>
<path d="M48.6279 249.528H323.769" stroke="#9CACCE" stroke-width="2" stroke-miterlimit="10"/>
<path d="M333.404 249.528H367.408" stroke="#9CACCE" stroke-width="2" stroke-miterlimit="10"/>
</g>
<g filter="url(#filter0_d_1_1612)">
<path d="M265.033 248.002L237.654 237.546L207.613 249.578L174.992 237.463L150.027 247.006C147.78 247.836 145.45 245.761 146.116 243.438L161.677 189.748C162.176 188.005 163.425 186.511 165.089 185.765L190.054 174.064L207.613 186.677L224.756 175.807L252.384 187.922C254.215 188.752 255.546 190.329 255.962 192.237L268.944 244.599C269.526 246.84 267.28 248.832 265.033 248.002Z" fill="white"/>
</g>
<path d="M190.054 174.147L174.992 237.463L150.027 247.006C147.78 247.836 145.45 245.761 146.116 243.437L161.677 189.748C162.176 188.005 163.425 186.511 165.089 185.764L190.054 174.147Z" fill="url(#paint8_linear_1_1612)"/>
<path d="M237.738 237.546L207.613 249.578V186.677L224.756 175.807L237.738 237.546Z" fill="url(#paint9_linear_1_1612)"/>
<mask id="path-21-inside-1_1_1612" fill="white">
<path d="M180.734 223.107C180.651 223.107 180.567 223.107 180.401 223.107C180.068 223.024 179.818 223.024 179.486 222.941C178.57 222.692 178.071 221.862 178.237 220.949C178.404 220.037 179.319 219.539 180.234 219.705C180.484 219.788 180.734 219.788 180.983 219.871C181.899 220.037 182.481 220.866 182.315 221.779C182.232 222.609 181.566 223.107 180.734 223.107ZM186.559 222.941C185.81 222.941 185.144 222.443 184.978 221.696C184.728 220.783 185.311 219.871 186.226 219.705C186.476 219.622 186.725 219.539 186.975 219.539C187.89 219.29 188.806 219.788 189.056 220.617C189.305 221.53 188.806 222.443 187.974 222.692C187.641 222.775 187.391 222.858 187.058 222.941C186.809 222.941 186.642 222.941 186.559 222.941ZM174.659 220.617C174.326 220.617 173.993 220.534 173.744 220.369C173.494 220.203 173.244 220.037 172.995 219.871C172.246 219.373 172.079 218.294 172.579 217.547C173.078 216.8 174.16 216.634 174.909 217.132C175.158 217.298 175.325 217.464 175.574 217.547C176.323 218.045 176.573 219.041 176.074 219.871C175.741 220.369 175.241 220.617 174.659 220.617ZM192.551 220.203C192.051 220.203 191.469 219.954 191.136 219.456C190.637 218.709 190.803 217.63 191.635 217.132C191.885 216.966 192.051 216.883 192.301 216.717C193.05 216.219 194.132 216.385 194.631 217.132C195.13 217.879 194.964 218.958 194.215 219.456C193.965 219.622 193.716 219.788 193.466 219.954C193.216 220.037 192.883 220.203 192.551 220.203ZM234.492 218.211C233.66 218.211 232.911 217.547 232.828 216.634C232.744 215.721 233.493 214.892 234.409 214.892C234.575 214.892 234.825 214.892 235.075 214.809C235.99 214.643 236.822 215.224 236.989 216.136C237.155 217.049 236.572 217.879 235.657 218.045C235.324 218.128 234.991 218.128 234.658 218.211C234.575 218.211 234.575 218.211 234.492 218.211ZM169.583 216.302C169.167 216.302 168.667 216.136 168.418 215.804C168.251 215.638 168.002 215.39 167.835 215.141C167.169 214.477 167.253 213.398 167.918 212.817C168.584 212.236 169.666 212.236 170.248 212.9C170.415 213.066 170.581 213.315 170.831 213.481C171.497 214.145 171.413 215.224 170.748 215.804C170.415 216.136 169.999 216.302 169.583 216.302ZM229.166 216.302C228.833 216.302 228.417 216.219 228.168 215.97C227.918 215.804 227.668 215.638 227.502 215.39C226.836 214.809 226.753 213.73 227.335 213.066C227.918 212.402 229 212.319 229.665 212.9C229.832 213.066 230.082 213.232 230.248 213.398C230.997 213.979 231.08 214.975 230.498 215.721C230.165 216.053 229.665 216.302 229.166 216.302ZM197.793 216.053C197.294 216.053 196.878 215.887 196.545 215.473C195.963 214.809 196.046 213.73 196.711 213.149C196.961 212.983 197.128 212.817 197.294 212.651C197.96 212.07 199.042 212.153 199.624 212.817C200.207 213.481 200.123 214.56 199.458 215.141C199.208 215.307 199.042 215.473 198.792 215.721C198.542 215.97 198.209 216.053 197.793 216.053ZM240.65 215.804C240.068 215.804 239.568 215.555 239.235 215.058C238.736 214.311 238.986 213.232 239.735 212.734C239.984 212.568 240.151 212.485 240.4 212.319C241.149 211.821 242.231 211.987 242.731 212.734C243.23 213.481 243.063 214.56 242.314 215.058C242.065 215.224 241.815 215.39 241.565 215.555C241.233 215.721 240.9 215.804 240.65 215.804ZM224.34 211.738C223.923 211.738 223.507 211.572 223.174 211.24C223.008 211.074 222.758 210.908 222.592 210.66C221.926 210.079 221.843 209 222.509 208.336C223.091 207.672 224.173 207.589 224.839 208.253C225.088 208.419 225.255 208.668 225.505 208.834C226.17 209.498 226.17 210.494 225.588 211.157C225.172 211.572 224.756 211.738 224.34 211.738ZM245.893 211.738C245.393 211.738 244.977 211.572 244.645 211.157C244.062 210.494 244.145 209.415 244.811 208.834C244.977 208.668 245.227 208.502 245.393 208.336C246.059 207.755 247.141 207.838 247.724 208.502C248.306 209.166 248.223 210.245 247.557 210.825C247.307 210.991 247.141 211.157 246.891 211.406C246.725 211.655 246.309 211.738 245.893 211.738ZM202.62 211.572C202.204 211.572 201.788 211.406 201.455 211.074C200.789 210.411 200.789 209.415 201.455 208.751L202.037 208.17C202.703 207.506 203.702 207.506 204.367 208.087C205.033 208.751 205.033 209.747 204.451 210.411L203.868 210.991C203.535 211.406 203.119 211.572 202.62 211.572ZM165.339 211.24C164.839 211.24 164.34 210.991 164.007 210.577C163.841 210.328 163.674 210.162 163.508 209.913C162.925 209.166 163.092 208.17 163.841 207.589C164.59 207.008 165.588 207.174 166.171 207.921L166.67 208.585C167.253 209.332 167.086 210.328 166.337 210.908C166.004 211.074 165.672 211.24 165.339 211.24ZM219.263 207.506C218.93 207.506 218.598 207.423 218.265 207.174C218.015 207.008 217.849 206.842 217.599 206.676C216.85 206.178 216.684 205.1 217.266 204.353C217.765 203.606 218.847 203.44 219.596 204.021C219.846 204.187 220.012 204.353 220.262 204.519C221.011 205.1 221.177 206.095 220.595 206.842C220.262 207.257 219.763 207.506 219.263 207.506ZM250.886 207.34C250.47 207.34 249.97 207.174 249.638 206.842C248.972 206.178 249.055 205.1 249.721 204.519L250.303 203.938C250.969 203.274 252.051 203.357 252.633 204.021C253.299 204.685 253.216 205.764 252.55 206.344L251.968 206.925C251.718 207.174 251.302 207.34 250.886 207.34ZM207.197 206.676C206.781 206.676 206.365 206.51 206.032 206.261C205.366 205.598 205.283 204.602 205.949 203.938C206.115 203.689 206.365 203.523 206.531 203.274C207.197 202.61 208.195 202.61 208.861 203.274C209.527 203.938 209.527 204.934 208.861 205.598C208.695 205.764 208.528 206.012 208.279 206.178C208.029 206.51 207.613 206.676 207.197 206.676ZM161.511 205.764C160.928 205.764 160.429 205.515 160.096 205.017L159.597 204.353C159.097 203.606 159.347 202.527 160.096 202.029C160.845 201.531 161.927 201.78 162.426 202.527L162.842 203.191C163.341 203.938 163.175 205.017 162.343 205.515C162.176 205.681 161.844 205.764 161.511 205.764ZM213.605 204.021C213.438 204.021 213.188 204.021 213.022 203.938C212.772 203.855 212.606 203.855 212.44 203.772C211.524 203.606 210.942 202.693 211.191 201.78C211.441 200.868 212.273 200.287 213.188 200.536C213.521 200.619 213.854 200.702 214.187 200.868C215.019 201.199 215.519 202.112 215.186 203.025C214.853 203.606 214.27 204.021 213.605 204.021Z"/>
</mask>
<path d="M180.734 223.107C180.651 223.107 180.567 223.107 180.401 223.107C180.068 223.024 179.818 223.024 179.486 222.941C178.57 222.692 178.071 221.862 178.237 220.949C178.404 220.037 179.319 219.539 180.234 219.705C180.484 219.788 180.734 219.788 180.983 219.871C181.899 220.037 182.481 220.866 182.315 221.779C182.232 222.609 181.566 223.107 180.734 223.107ZM186.559 222.941C185.81 222.941 185.144 222.443 184.978 221.696C184.728 220.783 185.311 219.871 186.226 219.705C186.476 219.622 186.725 219.539 186.975 219.539C187.89 219.29 188.806 219.788 189.056 220.617C189.305 221.53 188.806 222.443 187.974 222.692C187.641 222.775 187.391 222.858 187.058 222.941C186.809 222.941 186.642 222.941 186.559 222.941ZM174.659 220.617C174.326 220.617 173.993 220.534 173.744 220.369C173.494 220.203 173.244 220.037 172.995 219.871C172.246 219.373 172.079 218.294 172.579 217.547C173.078 216.8 174.16 216.634 174.909 217.132C175.158 217.298 175.325 217.464 175.574 217.547C176.323 218.045 176.573 219.041 176.074 219.871C175.741 220.369 175.241 220.617 174.659 220.617ZM192.551 220.203C192.051 220.203 191.469 219.954 191.136 219.456C190.637 218.709 190.803 217.63 191.635 217.132C191.885 216.966 192.051 216.883 192.301 216.717C193.05 216.219 194.132 216.385 194.631 217.132C195.13 217.879 194.964 218.958 194.215 219.456C193.965 219.622 193.716 219.788 193.466 219.954C193.216 220.037 192.883 220.203 192.551 220.203ZM234.492 218.211C233.66 218.211 232.911 217.547 232.828 216.634C232.744 215.721 233.493 214.892 234.409 214.892C234.575 214.892 234.825 214.892 235.075 214.809C235.99 214.643 236.822 215.224 236.989 216.136C237.155 217.049 236.572 217.879 235.657 218.045C235.324 218.128 234.991 218.128 234.658 218.211C234.575 218.211 234.575 218.211 234.492 218.211ZM169.583 216.302C169.167 216.302 168.667 216.136 168.418 215.804C168.251 215.638 168.002 215.39 167.835 215.141C167.169 214.477 167.253 213.398 167.918 212.817C168.584 212.236 169.666 212.236 170.248 212.9C170.415 213.066 170.581 213.315 170.831 213.481C171.497 214.145 171.413 215.224 170.748 215.804C170.415 216.136 169.999 216.302 169.583 216.302ZM229.166 216.302C228.833 216.302 228.417 216.219 228.168 215.97C227.918 215.804 227.668 215.638 227.502 215.39C226.836 214.809 226.753 213.73 227.335 213.066C227.918 212.402 229 212.319 229.665 212.9C229.832 213.066 230.082 213.232 230.248 213.398C230.997 213.979 231.08 214.975 230.498 215.721C230.165 216.053 229.665 216.302 229.166 216.302ZM197.793 216.053C197.294 216.053 196.878 215.887 196.545 215.473C195.963 214.809 196.046 213.73 196.711 213.149C196.961 212.983 197.128 212.817 197.294 212.651C197.96 212.07 199.042 212.153 199.624 212.817C200.207 213.481 200.123 214.56 199.458 215.141C199.208 215.307 199.042 215.473 198.792 215.721C198.542 215.97 198.209 216.053 197.793 216.053ZM240.65 215.804C240.068 215.804 239.568 215.555 239.235 215.058C238.736 214.311 238.986 213.232 239.735 212.734C239.984 212.568 240.151 212.485 240.4 212.319C241.149 211.821 242.231 211.987 242.731 212.734C243.23 213.481 243.063 214.56 242.314 215.058C242.065 215.224 241.815 215.39 241.565 215.555C241.233 215.721 240.9 215.804 240.65 215.804ZM224.34 211.738C223.923 211.738 223.507 211.572 223.174 211.24C223.008 211.074 222.758 210.908 222.592 210.66C221.926 210.079 221.843 209 222.509 208.336C223.091 207.672 224.173 207.589 224.839 208.253C225.088 208.419 225.255 208.668 225.505 208.834C226.17 209.498 226.17 210.494 225.588 211.157C225.172 211.572 224.756 211.738 224.34 211.738ZM245.893 211.738C245.393 211.738 244.977 211.572 244.645 211.157C244.062 210.494 244.145 209.415 244.811 208.834C244.977 208.668 245.227 208.502 245.393 208.336C246.059 207.755 247.141 207.838 247.724 208.502C248.306 209.166 248.223 210.245 247.557 210.825C247.307 210.991 247.141 211.157 246.891 211.406C246.725 211.655 246.309 211.738 245.893 211.738ZM202.62 211.572C202.204 211.572 201.788 211.406 201.455 211.074C200.789 210.411 200.789 209.415 201.455 208.751L202.037 208.17C202.703 207.506 203.702 207.506 204.367 208.087C205.033 208.751 205.033 209.747 204.451 210.411L203.868 210.991C203.535 211.406 203.119 211.572 202.62 211.572ZM165.339 211.24C164.839 211.24 164.34 210.991 164.007 210.577C163.841 210.328 163.674 210.162 163.508 209.913C162.925 209.166 163.092 208.17 163.841 207.589C164.59 207.008 165.588 207.174 166.171 207.921L166.67 208.585C167.253 209.332 167.086 210.328 166.337 210.908C166.004 211.074 165.672 211.24 165.339 211.24ZM219.263 207.506C218.93 207.506 218.598 207.423 218.265 207.174C218.015 207.008 217.849 206.842 217.599 206.676C216.85 206.178 216.684 205.1 217.266 204.353C217.765 203.606 218.847 203.44 219.596 204.021C219.846 204.187 220.012 204.353 220.262 204.519C221.011 205.1 221.177 206.095 220.595 206.842C220.262 207.257 219.763 207.506 219.263 207.506ZM250.886 207.34C250.47 207.34 249.97 207.174 249.638 206.842C248.972 206.178 249.055 205.1 249.721 204.519L250.303 203.938C250.969 203.274 252.051 203.357 252.633 204.021C253.299 204.685 253.216 205.764 252.55 206.344L251.968 206.925C251.718 207.174 251.302 207.34 250.886 207.34ZM207.197 206.676C206.781 206.676 206.365 206.51 206.032 206.261C205.366 205.598 205.283 204.602 205.949 203.938C206.115 203.689 206.365 203.523 206.531 203.274C207.197 202.61 208.195 202.61 208.861 203.274C209.527 203.938 209.527 204.934 208.861 205.598C208.695 205.764 208.528 206.012 208.279 206.178C208.029 206.51 207.613 206.676 207.197 206.676ZM161.511 205.764C160.928 205.764 160.429 205.515 160.096 205.017L159.597 204.353C159.097 203.606 159.347 202.527 160.096 202.029C160.845 201.531 161.927 201.78 162.426 202.527L162.842 203.191C163.341 203.938 163.175 205.017 162.343 205.515C162.176 205.681 161.844 205.764 161.511 205.764ZM213.605 204.021C213.438 204.021 213.188 204.021 213.022 203.938C212.772 203.855 212.606 203.855 212.44 203.772C211.524 203.606 210.942 202.693 211.191 201.78C211.441 200.868 212.273 200.287 213.188 200.536C213.521 200.619 213.854 200.702 214.187 200.868C215.019 201.199 215.519 202.112 215.186 203.025C214.853 203.606 214.27 204.021 213.605 204.021Z" stroke="#9CACCE" stroke-width="2" mask="url(#path-21-inside-1_1_1612)"/>
<path d="M207.613 130C222.842 130 235.158 142.281 235.158 157.467C235.158 169.583 217.682 193.565 210.526 202.859C209.028 204.851 206.032 204.851 204.534 202.859C197.377 193.565 179.902 169.583 179.902 157.467C180.068 142.281 192.384 130 207.613 130Z" fill="url(#paint10_linear_1_1612)"/>
<path d="M207.613 168.255C213.634 168.255 218.515 163.388 218.515 157.384C218.515 151.38 213.634 146.513 207.613 146.513C201.593 146.513 196.712 151.38 196.712 157.384C196.712 163.388 201.593 168.255 207.613 168.255Z" fill="white"/>
<path d="M91.829 166.235C91.829 166.235 87.9197 164.767 85.9674 172.089C84.0151 179.412 78.1536 177.967 76.687 186.281C75.2205 194.595 77.1541 202.908 75.7109 206.817C74.2677 210.726 69.8493 217.104 73.2682 224.913C76.687 232.722 84.5009 237.627 95.2478 234.69C105.995 231.754 116.265 232.736 117.713 215.622C119.161 198.508 105.014 202.417 105.504 195.086C105.995 187.754 113.318 185.304 107.947 178.458C102.576 171.613 98.6667 173.567 96.224 169.167C93.7813 164.767 91.829 166.235 91.829 166.235Z" fill="url(#paint11_linear_1_1612)"/>
<path d="M93.6534 249.494L93.3563 171.869H93.0947L90.8583 249.643L93.6534 249.494Z" fill="url(#paint12_linear_1_1612)"/>
<path d="M91.3993 229.869L74.2163 217.095L92.4408 228.046L91.3993 229.869Z" fill="url(#paint13_linear_1_1612)"/>
<path d="M92.7117 205.288L79.9471 195.801L93.487 203.932L92.7117 205.288Z" fill="url(#paint14_linear_1_1612)"/>
<path d="M93.487 220.746L110.67 207.972L92.4408 218.918L93.487 220.746Z" fill="url(#paint15_linear_1_1612)"/>
<path d="M93.6458 191.186L104.939 182.792L92.9639 189.984L93.6458 191.186Z" fill="url(#paint16_linear_1_1612)"/>
</g>
<defs>
<filter id="filter0_d_1_1612" x="118" y="154.064" width="171.037" height="123.514" filterUnits="userSpaceOnUse" color-interpolation-filters="sRGB">
<feFlood flood-opacity="0" result="BackgroundImageFix"/>
<feColorMatrix in="SourceAlpha" type="matrix" values="0 0 0 0 0 0 0 0 0 0 0 0 0 0 0 0 0 0 127 0" result="hardAlpha"/>
<feOffset dx="-4" dy="4"/>
<feGaussianBlur stdDeviation="12"/>
<feComposite in2="hardAlpha" operator="out"/>
<feColorMatrix type="matrix" values="0 0 0 0 0.67451 0 0 0 0 0.721569 0 0 0 0 0.792157 0 0 0 0.5 0"/>
<feBlend mode="normal" in2="BackgroundImageFix" result="effect1_dropShadow_1_1612"/>
<feBlend mode="normal" in="SourceGraphic" in2="effect1_dropShadow_1_1612" result="shape"/>
</filter>
<linearGradient id="paint0_linear_1_1612" x1="33" y1="42" x2="177.12" y2="330.928" gradientUnits="userSpaceOnUse">
<stop stop-color="#AACBFA"/>
<stop offset="1" stop-color="#C4DFFB"/>
</linearGradient>
<linearGradient id="paint1_linear_1_1612" x1="277.337" y1="115.61" x2="333.038" y2="117.064" gradientUnits="userSpaceOnUse">
<stop stop-color="#C5D2EC"/>
<stop offset="0.9964" stop-color="#F1F7FE"/>
</linearGradient>
<linearGradient id="paint2_linear_1_1612" x1="218.337" y1="174.324" x2="273.956" y2="176.904" gradientUnits="userSpaceOnUse">
<stop stop-color="#C5D2EC"/>
<stop offset="0.9964" stop-color="#F1F7FE"/>
</linearGradient>
<linearGradient id="paint3_linear_1_1612" x1="226.545" y1="47.7619" x2="327.305" y2="50.9264" gradientUnits="userSpaceOnUse">
<stop stop-color="#C5D2EC"/>
<stop offset="0.9964" stop-color="#F1F7FE"/>
</linearGradient>
<linearGradient id="paint4_linear_1_1612" x1="103.07" y1="68.6381" x2="177.338" y2="70.5546" gradientUnits="userSpaceOnUse">
<stop stop-color="#C5D2EC"/>
<stop offset="0.9964" stop-color="#F1F7FE"/>
</linearGradient>
<linearGradient id="paint5_linear_1_1612" x1="115.595" y1="100.562" x2="159.706" y2="113.276" gradientUnits="userSpaceOnUse">
<stop stop-color="#C5D2EC"/>
<stop offset="0.9964" stop-color="#F1F7FE"/>
</linearGradient>
<linearGradient id="paint6_linear_1_1612" x1="123.11" y1="86.6905" x2="154.486" y2="90.549" gradientUnits="userSpaceOnUse">
<stop stop-color="#C5D2EC"/>
<stop offset="0.9964" stop-color="#F1F7FE"/>
</linearGradient>
<linearGradient id="paint7_linear_1_1612" x1="131.07" y1="132.571" x2="205.27" y2="135.529" gradientUnits="userSpaceOnUse">
<stop stop-color="#C5D2EC"/>
<stop offset="0.9964" stop-color="#F1F7FE"/>
</linearGradient>
<linearGradient id="paint8_linear_1_1612" x1="145.81" y1="174.147" x2="193.672" y2="181.445" gradientUnits="userSpaceOnUse">
<stop stop-color="#65B4A1"/>
<stop offset="1" stop-color="#39C6A5"/>
</linearGradient>
<linearGradient id="paint9_linear_1_1612" x1="207.483" y1="175.807" x2="240.62" y2="179.228" gradientUnits="userSpaceOnUse">
<stop stop-color="#65B4A1"/>
<stop offset="1" stop-color="#39C6A5"/>
</linearGradient>
<linearGradient id="paint10_linear_1_1612" x1="207.53" y1="130" x2="207.53" y2="204.353" gradientUnits="userSpaceOnUse">
<stop stop-color="#FFB52E"/>
<stop offset="1" stop-color="#E69603"/>
</linearGradient>
<linearGradient id="paint11_linear_1_1612" x1="37.5223" y1="144.804" x2="158.271" y2="154.993" gradientUnits="userSpaceOnUse">
<stop stop-color="#C5D2EC"/>
<stop offset="0.9964" stop-color="#F1F7FE"/>
</linearGradient>
<linearGradient id="paint12_linear_1_1612" x1="91.2254" y1="173.214" x2="95.3845" y2="173.239" gradientUnits="userSpaceOnUse">
<stop stop-color="#B0BBCC"/>
<stop offset="1" stop-color="#8D9EB7"/>
</linearGradient>
<linearGradient id="paint13_linear_1_1612" x1="76.6097" y1="217.316" x2="102.301" y2="223.371" gradientUnits="userSpaceOnUse">
<stop stop-color="#B0BBCC"/>
<stop offset="1" stop-color="#8D9EB7"/>
</linearGradient>
<linearGradient id="paint14_linear_1_1612" x1="81.7253" y1="195.965" x2="100.812" y2="200.465" gradientUnits="userSpaceOnUse">
<stop stop-color="#B0BBCC"/>
<stop offset="1" stop-color="#8D9EB7"/>
</linearGradient>
<linearGradient id="paint15_linear_1_1612" x1="94.8348" y1="208.193" x2="120.532" y2="214.251" gradientUnits="userSpaceOnUse">
<stop stop-color="#B0BBCC"/>
<stop offset="1" stop-color="#8D9EB7"/>
</linearGradient>
<linearGradient id="paint16_linear_1_1612" x1="94.5366" y1="182.938" x2="111.418" y2="186.917" gradientUnits="userSpaceOnUse">
<stop stop-color="#B0BBCC"/>
<stop offset="1" stop-color="#8D9EB7"/>
</linearGradient>
<clipPath id="clip0_1_1612">
<rect width="400" height="250" fill="white"/>
</clipPath>
<clipPath id="clip1_1_1612">
<rect width="337.31" height="208.104" fill="white" transform="translate(33 42)"/>
</clipPath>
</defs>
</svg>
