<svg width="400" height="217" viewBox="0 0 400 217" fill="none" xmlns="http://www.w3.org/2000/svg">
<g clip-path="url(#clip0_1_1401)">
<g clip-path="url(#clip1_1_1401)">
<path opacity="0.3" d="M68 219.913C92.0446 212.517 119.687 186.523 150.305 166.494C194.547 137.553 230.265 151.96 250.107 169.717C272.288 189.565 326.208 217.202 361.601 219.802C364.381 219.839 367.181 219.876 370 219.913C367.347 220.061 364.538 220.018 361.601 219.802C192.899 217.58 96.0703 217.066 68 219.913Z" fill="url(#paint0_linear_1_1401)"/>
<path opacity="0.15" d="M298.306 55.1652C298.306 55.1652 288.906 -18.3903 233.445 34.4928C162.348 102.281 114.557 -32.4497 61.8153 22.5461C33.0014 52.59 109.142 119.783 58.2908 155.144C7.43975 190.505 48.9942 216.977 48.9942 216.977H337.739C337.739 216.977 367.631 219.136 369.894 181.312C372.153 143.489 337.406 143.03 358.971 95.6974C380.536 48.3647 305.083 85.2925 298.306 55.1652Z" fill="url(#paint1_linear_1_1401)"/>
<g opacity="0.8">
<g filter="url(#filter0_d_1_1401)">
<path d="M166.287 79.2831C166.287 83.8838 162.566 87.6044 157.926 87.6044C157.846 87.6044 157.166 87.6044 152.165 87.6044C148.684 87.6044 143.123 87.6044 134.242 87.6044H130.001C124.441 87.7244 120 83.2837 120 77.9229C120 72.5221 124.481 68.0415 130.121 68.3215C134.962 53.1993 157.125 55.3196 159.006 70.9619C163.166 71.482 166.287 75.0025 166.287 79.2831Z" fill="url(#paint2_linear_1_1401)"/>
</g>
<path d="M157.925 87.6044C162.526 87.6044 166.287 83.8839 166.287 79.2832C166.287 74.6825 162.526 70.962 157.925 70.962C153.325 70.962 149.564 74.6825 149.564 79.2832C149.564 83.8839 153.325 87.6044 157.925 87.6044Z" fill="url(#paint3_linear_1_1401)"/>
<path d="M144.283 87.6844C152.485 87.6844 159.166 81.0434 159.166 72.8422C159.166 64.641 152.485 58 144.283 58C136.082 58 129.401 64.641 129.401 72.8422C129.401 81.0434 136.042 87.6844 144.283 87.6844Z" fill="url(#paint4_linear_1_1401)"/>
</g>
<path opacity="0.6" d="M137 219.947C153.162 214.326 180.422 202.908 201.003 187.686C230.742 165.69 234.621 170.089 254.016 181.087C272.217 191.408 311.486 217.873 335.486 219.879C336.982 219.902 338.487 219.924 340 219.947C338.568 220.037 337.06 220.011 335.486 219.879C221.389 218.176 155.931 217.776 137 219.947Z" fill="url(#paint5_linear_1_1401)"/>
<path d="M90 219.952C106.162 214.917 133.422 204.689 154.003 191.052C183.742 171.347 187.621 175.288 207.016 185.141C225.217 194.387 264.486 218.095 288.486 219.892C289.982 219.912 291.487 219.932 293 219.952C291.568 220.033 290.06 220.01 288.486 219.892C174.389 218.366 108.931 218.007 90 219.952Z" fill="url(#paint6_linear_1_1401)"/>
<path d="M157 219.962C173.162 214.936 209.496 204.752 228.115 188.493C251.389 168.17 258.5 168.825 277.895 178.659C296.334 188.009 332.888 218.098 356.446 219.914C357.626 219.93 358.81 219.946 360 219.962C358.853 220.026 357.667 220.008 356.446 219.914C241.756 218.381 175.984 218.015 157 219.962Z" fill="url(#paint7_linear_1_1401)"/>
<path d="M48.6279 216.528H323.769" stroke="#9CACCE" stroke-width="2" stroke-miterlimit="10"/>
<path d="M333.404 216.528H367.408" stroke="#9CACCE" stroke-width="2" stroke-miterlimit="10"/>
</g>
<rect x="168.963" y="186.083" width="18.9126" height="30.8906" rx="5.04336" fill="url(#paint8_linear_1_1401)"/>
<rect x="275.983" y="192.88" width="18.9126" height="30.8906" rx="5.04336" transform="rotate(-30 275.983 192.88)" fill="url(#paint9_linear_1_1401)"/>
<g filter="url(#filter1_d_1_1401)">
<path d="M182.163 100.418C183.152 95.1133 188.14 91.5264 193.483 92.2773L282.986 104.856C288.329 105.607 292.135 110.43 291.623 115.801L282.827 208.147C282.282 213.869 277.074 217.979 271.382 217.18L173.677 203.448C167.985 202.648 164.111 197.261 165.164 191.611L182.163 100.418Z" fill="white"/>
</g>
<path d="M169.176 169.979L284.933 186.051L282.828 208.148C282.282 213.869 277.074 217.98 271.383 217.18L173.67 203.447C167.981 202.648 164.108 197.265 165.157 191.617L169.176 169.979Z" fill="url(#paint10_linear_1_1401)"/>
<path d="M199.507 86.5872C201.25 82.3099 205.677 79.7637 210.251 80.4066L270.158 88.826C274.733 89.4689 278.285 93.1365 278.783 97.7287L279.477 104.141L197.071 92.5599L199.507 86.5872Z" fill="url(#paint11_linear_1_1401)"/>
<circle cx="198.374" cy="155.768" r="14.4997" transform="rotate(8 198.374 155.768)" stroke="#9CACCE" stroke-width="2.52168"/>
<path d="M211.152 148.651L198.379 157.997L188.989 145.536" stroke="#9CACCE" stroke-width="2.52168"/>
<path d="M284.894 186.071L169.073 169.979L172.51 151.815L223.68 159.006C226.993 159.472 229.83 161.616 231.181 164.677C232.533 167.736 235.368 169.88 238.68 170.347L285.797 176.984L284.894 186.071Z" fill="url(#paint12_linear_1_1401)"/>
<circle cx="183.379" cy="187.719" r="5.98899" transform="rotate(8 183.379 187.719)" fill="white"/>
<circle cx="265.785" cy="199.301" r="5.98899" transform="rotate(8 265.785 199.301)" fill="white"/>
<rect x="203.078" y="185.713" width="45.3903" height="10.0867" rx="5.04336" transform="rotate(8 203.078 185.713)" fill="white"/>
<rect x="297.358" y="126.389" width="13.2388" height="28.3689" rx="3.1521" transform="rotate(8 297.358 126.389)" fill="url(#paint13_linear_1_1401)"/>
<path d="M291.456 118.557L300.196 119.786C302.955 120.173 304.876 122.724 304.489 125.482L304.138 127.979" stroke="url(#paint14_linear_1_1401)" stroke-width="2"/>
<path d="M286.826 160.56L294.318 161.612C297.076 162 299.626 160.078 300.014 157.32L300.365 154.823" stroke="url(#paint15_linear_1_1401)" stroke-width="2"/>
<rect width="13.2388" height="28.3689" rx="3.1521" transform="matrix(-0.990268 -0.139173 -0.139173 0.990268 173.125 108.93)" fill="url(#paint16_linear_1_1401)"/>
<path d="M180.958 103.028L172.218 101.799C169.46 101.412 166.909 103.334 166.522 106.092L166.171 108.589" stroke="url(#paint17_linear_1_1401)" stroke-width="2"/>
<path d="M173.831 144.679L166.339 143.626C163.581 143.239 161.659 140.689 162.047 137.93L162.398 135.433" stroke="url(#paint18_linear_1_1401)" stroke-width="2"/>
<path d="M301 191.167L304.667 193L305.667 189.333L309.333 191.167L312 186.033H317.667L320 182" stroke="url(#paint19_linear_1_1401)"/>
<line x1="294.512" y1="180.892" x2="296.512" y2="171.892" stroke="url(#paint20_linear_1_1401)"/>
<line x1="297.718" y1="184.063" x2="305.718" y2="178.587" stroke="url(#paint21_linear_1_1401)"/>
<line x1="129" y1="216.5" x2="180" y2="216.5" stroke="#9CACCE"/>
<path d="M114.829 133.235C114.829 133.235 110.92 131.767 108.967 139.089C107.015 146.412 101.154 144.967 99.687 153.281C98.2205 161.595 100.154 169.908 98.7109 173.817C97.2677 177.726 92.8493 184.104 96.2682 191.913C99.687 199.722 107.501 204.627 118.248 201.69C128.995 198.754 139.265 199.736 140.713 182.622C142.161 165.508 128.014 169.417 128.504 162.086C128.995 154.754 136.318 152.304 130.947 145.458C125.576 138.613 121.667 140.567 119.224 136.167C116.781 131.767 114.829 133.235 114.829 133.235Z" fill="#B0E4CE"/>
<path d="M116.653 216.494L116.356 138.87H116.095L113.858 216.643L116.653 216.494Z" fill="#4D6173"/>
<path d="M114.399 196.869L97.2163 184.095L115.441 195.046L114.399 196.869Z" fill="#4D6173"/>
<path d="M115.712 172.288L102.947 162.801L116.487 170.932L115.712 172.288Z" fill="#4D6173"/>
<path d="M116.487 187.747L133.67 174.972L115.441 185.918L116.487 187.747Z" fill="#4D6173"/>
<path d="M116.646 158.186L127.939 149.793L115.964 156.984L116.646 158.186Z" fill="#4D6173"/>
</g>
<defs>
<filter id="filter0_d_1_1401" x="98" y="47.0361" width="90.2869" height="73.5706" filterUnits="userSpaceOnUse" color-interpolation-filters="sRGB">
<feFlood flood-opacity="0" result="BackgroundImageFix"/>
<feColorMatrix in="SourceAlpha" type="matrix" values="0 0 0 0 0 0 0 0 0 0 0 0 0 0 0 0 0 0 127 0" result="hardAlpha"/>
<feOffset dy="11"/>
<feGaussianBlur stdDeviation="11"/>
<feColorMatrix type="matrix" values="0 0 0 0 0.397708 0 0 0 0 0.47749 0 0 0 0 0.575 0 0 0 0.14 0"/>
<feBlend mode="normal" in2="BackgroundImageFix" result="effect1_dropShadow_1_1401"/>
<feBlend mode="normal" in="SourceGraphic" in2="effect1_dropShadow_1_1401" result="shape"/>
</filter>
<filter id="filter1_d_1_1401" x="136.992" y="72.178" width="174.678" height="173.101" filterUnits="userSpaceOnUse" color-interpolation-filters="sRGB">
<feFlood flood-opacity="0" result="BackgroundImageFix"/>
<feColorMatrix in="SourceAlpha" type="matrix" values="0 0 0 0 0 0 0 0 0 0 0 0 0 0 0 0 0 0 127 0" result="hardAlpha"/>
<feOffset dx="-4" dy="4"/>
<feGaussianBlur stdDeviation="12"/>
<feComposite in2="hardAlpha" operator="out"/>
<feColorMatrix type="matrix" values="0 0 0 0 0.67451 0 0 0 0 0.721569 0 0 0 0 0.792157 0 0 0 0.5 0"/>
<feBlend mode="normal" in2="BackgroundImageFix" result="effect1_dropShadow_1_1401"/>
<feBlend mode="normal" in="SourceGraphic" in2="effect1_dropShadow_1_1401" result="shape"/>
</filter>
<linearGradient id="paint0_linear_1_1401" x1="-159.256" y1="128.667" x2="454.767" y2="468.019" gradientUnits="userSpaceOnUse">
<stop stop-color="#C5D2EC"/>
<stop offset="0.9964" stop-color="#F1F7FE"/>
</linearGradient>
<linearGradient id="paint1_linear_1_1401" x1="33" y1="9" x2="177.12" y2="297.928" gradientUnits="userSpaceOnUse">
<stop stop-color="#AACBFA"/>
<stop offset="1" stop-color="#C4DFFB"/>
</linearGradient>
<linearGradient id="paint2_linear_1_1401" x1="143.143" y1="70.2558" x2="143.128" y2="87.9255" gradientUnits="userSpaceOnUse">
<stop stop-color="white"/>
<stop offset="0.9964" stop-color="#ECF0F5"/>
</linearGradient>
<linearGradient id="paint3_linear_1_1401" x1="148.674" y1="69.1704" x2="156.086" y2="77.2771" gradientUnits="userSpaceOnUse">
<stop stop-color="#BCCBE1"/>
<stop offset="0.9942" stop-color="white" stop-opacity="0"/>
</linearGradient>
<linearGradient id="paint4_linear_1_1401" x1="128.008" y1="66.0315" x2="139.69" y2="70.6031" gradientUnits="userSpaceOnUse">
<stop stop-color="#E2E8F0"/>
<stop offset="0.9942" stop-color="white" stop-opacity="0"/>
</linearGradient>
<linearGradient id="paint5_linear_1_1401" x1="-15.7584" y1="157.371" x2="400.787" y2="383.041" gradientUnits="userSpaceOnUse">
<stop stop-color="#C5D2EC"/>
<stop offset="0.9964" stop-color="#F1F7FE"/>
</linearGradient>
<linearGradient id="paint6_linear_1_1401" x1="-62.7584" y1="163.895" x2="331.758" y2="402.484" gradientUnits="userSpaceOnUse">
<stop stop-color="#D5DEF1"/>
<stop offset="0.9964" stop-color="#F1F7FE"/>
</linearGradient>
<linearGradient id="paint7_linear_1_1401" x1="4.2416" y1="157.371" x2="420.787" y2="383.041" gradientUnits="userSpaceOnUse">
<stop stop-color="#E8EDF8"/>
<stop offset="0.9964" stop-color="#F1F7FE"/>
</linearGradient>
<linearGradient id="paint8_linear_1_1401" x1="171.447" y1="186.617" x2="199.304" y2="189.435" gradientUnits="userSpaceOnUse">
<stop stop-color="#B0BBCC"/>
<stop offset="1" stop-color="#8D9EB7"/>
</linearGradient>
<linearGradient id="paint9_linear_1_1401" x1="278.467" y1="193.415" x2="306.324" y2="196.232" gradientUnits="userSpaceOnUse">
<stop stop-color="#B0BBCC"/>
<stop offset="1" stop-color="#8D9EB7"/>
</linearGradient>
<linearGradient id="paint10_linear_1_1401" x1="79.9281" y1="147.172" x2="325.712" y2="287.688" gradientUnits="userSpaceOnUse">
<stop stop-color="#B8C5E0"/>
<stop offset="0.9964" stop-color="#C9D8E8"/>
</linearGradient>
<linearGradient id="paint11_linear_1_1401" x1="137.579" y1="65.9249" x2="270.98" y2="182.655" gradientUnits="userSpaceOnUse">
<stop stop-color="#B8C5E0"/>
<stop offset="0.9964" stop-color="#C9D8E8"/>
</linearGradient>
<linearGradient id="paint12_linear_1_1401" x1="171.143" y1="151.622" x2="199.138" y2="214.538" gradientUnits="userSpaceOnUse">
<stop stop-color="#3AC5A5"/>
<stop offset="1" stop-color="#31C9A5"/>
</linearGradient>
<linearGradient id="paint13_linear_1_1401" x1="287.396" y1="117.744" x2="321.006" y2="119.453" gradientUnits="userSpaceOnUse">
<stop stop-color="#B8C5E0"/>
<stop offset="0.9964" stop-color="#C9D8E8"/>
</linearGradient>
<linearGradient id="paint14_linear_1_1401" x1="293.242" y1="118.94" x2="311.165" y2="127.241" gradientUnits="userSpaceOnUse">
<stop stop-color="#B0BBCC"/>
<stop offset="1" stop-color="#8D9EB7"/>
</linearGradient>
<linearGradient id="paint15_linear_1_1401" x1="288.484" y1="160.661" x2="306.422" y2="158.332" gradientUnits="userSpaceOnUse">
<stop stop-color="#B0BBCC"/>
<stop offset="1" stop-color="#8D9EB7"/>
</linearGradient>
<linearGradient id="paint16_linear_1_1401" x1="-9.96228" y1="-8.64576" x2="23.6478" y2="-6.93598" gradientUnits="userSpaceOnUse">
<stop stop-color="#B8C5E0"/>
<stop offset="0.9964" stop-color="#C9D8E8"/>
</linearGradient>
<linearGradient id="paint17_linear_1_1401" x1="179.136" y1="102.904" x2="159.62" y2="105.943" gradientUnits="userSpaceOnUse">
<stop stop-color="#B0BBCC"/>
<stop offset="1" stop-color="#8D9EB7"/>
</linearGradient>
<linearGradient id="paint18_linear_1_1401" x1="172.209" y1="144.319" x2="155.608" y2="137.137" gradientUnits="userSpaceOnUse">
<stop stop-color="#B0BBCC"/>
<stop offset="1" stop-color="#8D9EB7"/>
</linearGradient>
<linearGradient id="paint19_linear_1_1401" x1="303.495" y1="182.19" x2="329.639" y2="189.651" gradientUnits="userSpaceOnUse">
<stop stop-color="#B0BBCC"/>
<stop offset="1" stop-color="#8D9EB7"/>
</linearGradient>
<linearGradient id="paint20_linear_1_1401" x1="295.28" y1="179.822" x2="302.32" y2="177.153" gradientUnits="userSpaceOnUse">
<stop stop-color="#B0BBCC"/>
<stop offset="1" stop-color="#8D9EB7"/>
</linearGradient>
<linearGradient id="paint21_linear_1_1401" x1="299.06" y1="183.771" x2="306.06" y2="186.833" gradientUnits="userSpaceOnUse">
<stop stop-color="#B0BBCC"/>
<stop offset="1" stop-color="#8D9EB7"/>
</linearGradient>
<clipPath id="clip0_1_1401">
<rect width="400" height="250" fill="white" transform="translate(0 -33)"/>
</clipPath>
<clipPath id="clip1_1_1401">
<rect width="337.31" height="208.104" fill="white" transform="translate(33 9)"/>
</clipPath>
</defs>
</svg>
