<svg width="400" height="250" viewBox="0 0 400 250" fill="none" xmlns="http://www.w3.org/2000/svg">
<g clip-path="url(#clip0_1_1591)">
<g clip-path="url(#clip1_1_1591)">
<path opacity="0.15" d="M298.306 88.1652C298.306 88.1652 288.906 14.6097 233.445 67.4928C162.348 135.281 114.557 0.550316 61.8153 55.5461C33.0014 85.59 109.142 152.783 58.2908 188.144C7.43975 223.505 48.9942 249.977 48.9942 249.977H337.739C337.739 249.977 367.631 252.136 369.894 214.312C372.153 176.489 337.406 176.03 358.971 128.697C380.536 81.3647 305.083 118.292 298.306 88.1652Z" fill="url(#paint0_linear_1_1591)"/>
<g opacity="0.45">
<rect x="293.14" y="147" width="21" height="103" fill="url(#paint1_linear_1_1591)"/>
<rect x="234.14" y="192" width="21" height="58" fill="url(#paint2_linear_1_1591)"/>
<path d="M255.14 111L274.14 95L293.14 111V250H255.14V111Z" fill="url(#paint3_linear_1_1591)"/>
<rect x="261.14" y="116" width="11" height="27" fill="white"/>
<rect x="261.14" y="147" width="11" height="27" fill="white"/>
<rect x="261.14" y="178" width="11" height="27" fill="white"/>
<rect x="276.14" y="116" width="11" height="27" fill="white"/>
<rect x="276.14" y="147" width="11" height="27" fill="white"/>
<rect x="276.14" y="178" width="11" height="27" fill="white"/>
<rect x="261.14" y="210" width="26" height="40" fill="white"/>
<rect x="124.14" y="111" width="28" height="139" fill="url(#paint4_linear_1_1591)"/>
<rect x="129.14" y="103" width="18" height="8" fill="url(#paint5_linear_1_1591)"/>
<path d="M132.14 95L138.14 90.5L144.14 95V103H132.14V95Z" fill="url(#paint6_linear_1_1591)"/>
<path d="M152.14 160L180.14 176V250H152.14V160Z" fill="url(#paint7_linear_1_1591)"/>
</g>
<path d="M48.6279 249.528H323.769" stroke="#9CACCE" stroke-width="2" stroke-miterlimit="10"/>
<path d="M333.404 249.528H367.408" stroke="#9CACCE" stroke-width="2" stroke-miterlimit="10"/>
</g>
<path d="M277.839 249H148.161C140.271 249 134 243.64 134 236.898V173.102C134 166.36 140.271 161 148.161 161H277.839C285.729 161 292 166.36 292 173.102V236.898C292 243.64 285.729 249 277.839 249Z" fill="url(#paint8_linear_1_1591)"/>
<rect x="256" y="185" width="36" height="15" fill="url(#paint9_linear_1_1591)"/>
<g filter="url(#filter0_d_1_1591)">
<path d="M254.079 249H144.921C138.279 249 133 243.64 133 236.898V173.102C133 166.36 138.279 161 144.921 161H254.079C260.721 161 266 166.36 266 173.102V236.898C266 243.64 260.721 249 254.079 249Z" fill="white"/>
</g>
<path d="M166.698 229.641H149.3C147.765 229.641 146.571 228.447 146.571 226.912C146.571 225.377 147.765 224.183 149.3 224.183H166.698C168.233 224.183 169.427 225.377 169.427 226.912C169.427 228.447 168.233 229.641 166.698 229.641Z" fill="#C9D3E8"/>
<path d="M194.842 229.641H177.444C175.909 229.641 174.715 228.447 174.715 226.912C174.715 225.377 175.909 224.183 177.444 224.183H194.842C196.377 224.183 197.571 225.377 197.571 226.912C197.571 228.447 196.377 229.641 194.842 229.641Z" fill="#C9D3E8"/>
<path d="M222.985 229.641H205.587C204.052 229.641 202.858 228.447 202.858 226.912C202.858 225.377 204.052 224.183 205.587 224.183H222.985C224.52 224.183 225.714 225.377 225.714 226.912C225.714 228.447 224.52 229.641 222.985 229.641Z" fill="#C9D3E8"/>
<path d="M251.13 229.641H233.732C232.197 229.641 231.003 228.447 231.003 226.912C231.003 225.377 232.197 224.183 233.732 224.183H251.13C252.665 224.183 253.859 225.377 253.859 226.912C253.859 228.447 252.665 229.641 251.13 229.641Z" fill="#C9D3E8"/>
<path d="M244.485 193.458C249.658 193.458 253.852 189.264 253.852 184.09C253.852 178.917 249.658 174.723 244.485 174.723C239.311 174.723 235.117 178.917 235.117 184.09C235.117 189.264 239.311 193.458 244.485 193.458Z" fill="url(#paint10_linear_1_1591)"/>
<path d="M232.151 193.458C237.324 193.458 241.518 189.264 241.518 184.09C241.518 178.917 237.324 174.723 232.151 174.723C226.977 174.723 222.783 178.917 222.783 184.09C222.783 189.264 226.977 193.458 232.151 193.458Z" fill="#39C6A5"/>
<path d="M354.244 248.954H340.023C339.647 248.954 339.321 248.705 339.222 248.345L333.209 226.582C333.063 226.053 333.462 225.528 334.01 225.528H360.253C360.805 225.528 361.203 226.053 361.054 226.582L355.041 248.345C354.945 248.705 354.62 248.954 354.244 248.954Z" fill="white" stroke="#9CACCE" stroke-width="2" stroke-miterlimit="10"/>
<path d="M351.163 225.528C351.163 225.528 350.818 216.189 358.252 206.85" stroke="#9CACCE" stroke-width="1.14967" stroke-miterlimit="10"/>
<path d="M333.179 211.391C341.717 208.061 342.859 225.528 342.859 225.528" stroke="#9CACCE" stroke-width="1.14967" stroke-miterlimit="10"/>
<path d="M346.821 225.528L345.399 212.924" stroke="#9CACCE" stroke-width="1.14967" stroke-miterlimit="10"/>
<path d="M353.354 209.168L353.356 209.166C353.427 209.062 353.504 208.96 353.586 208.851C353.607 208.823 353.628 208.796 353.649 208.767C355.373 206.557 357.356 204.761 360.013 203.906C362.645 203.059 365.967 203.126 370.398 204.675C369.17 204.697 367.116 204.842 365.268 205.485C363.354 206.151 361.607 207.373 361.297 209.594L361.297 209.594C361.003 211.725 360.425 213.181 359.687 214.133C358.953 215.079 358.053 215.536 357.083 215.658C353.591 216.095 351.308 212.063 353.354 209.168Z" fill="#C9D3E8" stroke="#9CACCE" stroke-width="0.383222"/>
<path d="M345.05 193.608C345.053 193.884 345.059 194.243 345.07 194.664C345.097 195.677 345.155 197.052 345.278 198.502C345.401 199.95 345.589 201.477 345.877 202.792C346.164 204.095 346.556 205.228 347.111 205.854C347.598 206.406 347.925 207.193 348.088 208.071C348.251 208.947 348.248 209.901 348.086 210.773C347.924 211.648 347.606 212.427 347.153 212.966C346.704 213.5 346.127 213.796 345.42 213.733C344.73 213.671 343.906 213.049 343.171 211.91C342.443 210.782 341.828 209.186 341.54 207.268C340.981 203.555 341.646 198.647 345.05 193.608Z" fill="#C9D3E8" stroke="#9CACCE" stroke-width="0.383222"/>
<path d="M331.495 210.271L331.495 210.271C333.01 209.801 333.999 210.089 334.508 210.734C335.029 211.393 335.117 212.504 334.645 213.821C333.721 216.402 330.681 219.62 325.149 221.15C325.15 221.107 325.152 221.059 325.154 221.006C325.163 220.753 325.184 220.387 325.23 219.941C325.321 219.05 325.51 217.841 325.904 216.57C326.691 214.024 328.282 211.269 331.495 210.271Z" fill="#C9D3E8" stroke="#9CACCE" stroke-width="0.383222"/>
<path d="M140.944 187.888C152.511 187.888 161.888 178.511 161.888 166.944C161.888 155.377 152.511 146 140.944 146C129.377 146 120 155.377 120 166.944C120 178.511 129.377 187.888 140.944 187.888Z" fill="url(#paint11_linear_1_1591)"/>
<path d="M138.27 176.647C137.574 176.647 136.915 176.353 136.493 175.845L130.776 169C130.599 168.788 130.47 168.547 130.396 168.291C130.322 168.034 130.305 167.767 130.345 167.504C130.385 167.241 130.482 166.988 130.63 166.76C130.778 166.531 130.975 166.331 131.208 166.171C131.441 166.01 131.707 165.893 131.991 165.826C132.274 165.758 132.57 165.742 132.86 165.779C133.15 165.815 133.43 165.903 133.683 166.037C133.935 166.172 134.156 166.35 134.333 166.562L138.094 171.063L147.552 157.3C147.866 156.845 148.365 156.522 148.942 156.401C149.518 156.28 150.123 156.371 150.626 156.654C151.67 157.243 151.992 158.49 151.339 159.438L140.165 175.693C139.974 175.972 139.711 176.204 139.399 176.37C139.087 176.535 138.734 176.63 138.373 176.644C138.338 176.647 138.306 176.647 138.27 176.647Z" fill="white"/>
</g>
<defs>
<filter id="filter0_d_1_1591" x="105" y="141" width="181" height="136" filterUnits="userSpaceOnUse" color-interpolation-filters="sRGB">
<feFlood flood-opacity="0" result="BackgroundImageFix"/>
<feColorMatrix in="SourceAlpha" type="matrix" values="0 0 0 0 0 0 0 0 0 0 0 0 0 0 0 0 0 0 127 0" result="hardAlpha"/>
<feOffset dx="-4" dy="4"/>
<feGaussianBlur stdDeviation="12"/>
<feComposite in2="hardAlpha" operator="out"/>
<feColorMatrix type="matrix" values="0 0 0 0 0.67451 0 0 0 0 0.721569 0 0 0 0 0.792157 0 0 0 0.5 0"/>
<feBlend mode="normal" in2="BackgroundImageFix" result="effect1_dropShadow_1_1591"/>
<feBlend mode="normal" in="SourceGraphic" in2="effect1_dropShadow_1_1591" result="shape"/>
</filter>
<linearGradient id="paint0_linear_1_1591" x1="33" y1="42" x2="177.12" y2="330.928" gradientUnits="userSpaceOnUse">
<stop stop-color="#AACBFA"/>
<stop offset="1" stop-color="#C4DFFB"/>
</linearGradient>
<linearGradient id="paint1_linear_1_1591" x1="277.337" y1="115.61" x2="333.038" y2="117.064" gradientUnits="userSpaceOnUse">
<stop stop-color="#C5D2EC"/>
<stop offset="0.9964" stop-color="#F1F7FE"/>
</linearGradient>
<linearGradient id="paint2_linear_1_1591" x1="218.337" y1="174.324" x2="273.956" y2="176.904" gradientUnits="userSpaceOnUse">
<stop stop-color="#C5D2EC"/>
<stop offset="0.9964" stop-color="#F1F7FE"/>
</linearGradient>
<linearGradient id="paint3_linear_1_1591" x1="226.545" y1="47.7619" x2="327.305" y2="50.9264" gradientUnits="userSpaceOnUse">
<stop stop-color="#C5D2EC"/>
<stop offset="0.9964" stop-color="#F1F7FE"/>
</linearGradient>
<linearGradient id="paint4_linear_1_1591" x1="103.07" y1="68.6381" x2="177.338" y2="70.5546" gradientUnits="userSpaceOnUse">
<stop stop-color="#C5D2EC"/>
<stop offset="0.9964" stop-color="#F1F7FE"/>
</linearGradient>
<linearGradient id="paint5_linear_1_1591" x1="115.595" y1="100.562" x2="159.706" y2="113.276" gradientUnits="userSpaceOnUse">
<stop stop-color="#C5D2EC"/>
<stop offset="0.9964" stop-color="#F1F7FE"/>
</linearGradient>
<linearGradient id="paint6_linear_1_1591" x1="123.11" y1="86.6905" x2="154.486" y2="90.549" gradientUnits="userSpaceOnUse">
<stop stop-color="#C5D2EC"/>
<stop offset="0.9964" stop-color="#F1F7FE"/>
</linearGradient>
<linearGradient id="paint7_linear_1_1591" x1="131.07" y1="132.571" x2="205.27" y2="135.529" gradientUnits="userSpaceOnUse">
<stop stop-color="#C5D2EC"/>
<stop offset="0.9964" stop-color="#F1F7FE"/>
</linearGradient>
<linearGradient id="paint8_linear_1_1591" x1="133.319" y1="161" x2="278.953" y2="227.115" gradientUnits="userSpaceOnUse">
<stop stop-color="#00F1B9"/>
<stop offset="1" stop-color="#31C9A5"/>
</linearGradient>
<linearGradient id="paint9_linear_1_1591" x1="228.91" y1="180.429" x2="316.21" y2="207.269" gradientUnits="userSpaceOnUse">
<stop stop-color="#FFB52E"/>
<stop offset="0.9964" stop-color="#E69603"/>
</linearGradient>
<linearGradient id="paint10_linear_1_1591" x1="244.485" y1="174.723" x2="244.485" y2="193.458" gradientUnits="userSpaceOnUse">
<stop stop-color="#FFB52E"/>
<stop offset="1" stop-color="#E69603"/>
</linearGradient>
<linearGradient id="paint11_linear_1_1591" x1="125.501" y1="146.724" x2="186.175" y2="156.748" gradientUnits="userSpaceOnUse">
<stop stop-color="#3AC5A5"/>
<stop offset="1" stop-color="#1DEABB"/>
</linearGradient>
<clipPath id="clip0_1_1591">
<rect width="400" height="250" fill="white"/>
</clipPath>
<clipPath id="clip1_1_1591">
<rect width="337.31" height="208.104" fill="white" transform="translate(33 42)"/>
</clipPath>
</defs>
</svg>
